<svg width="15" height="15" viewBox="0 0 15 15" fill="none" xmlns="http://www.w3.org/2000/svg">
<path d="M9.65295 4.12732C9.55209 4.2035 9.251 4.43094 9.07743 4.5664C8.7298 4.83769 8.26786 5.20839 7.80731 5.60827C7.34442 6.01017 6.89361 6.43236 6.56221 6.80743C6.39604 6.9955 6.26977 7.16071 6.18758 7.29704C6.11028 7.42526 6.09421 7.50101 6.09421 7.50101C6.09421 7.50101 6.11028 7.57452 6.18758 7.70273C6.26976 7.83906 6.39603 8.00427 6.56221 8.19234C6.89361 8.56741 7.34442 8.98961 7.80731 9.39151C8.26788 9.79139 8.72981 10.1621 9.07745 10.4334C9.25102 10.5688 9.55168 10.796 9.65254 10.8721C9.861 11.0257 9.90596 11.3194 9.75244 11.5279C9.59892 11.7363 9.30548 11.7808 9.09703 11.6273L9.09544 11.6261C8.98966 11.5462 8.67777 11.3107 8.50067 11.1725C8.14518 10.895 7.66962 10.5135 7.19268 10.0994C6.71807 9.68734 6.23138 9.2338 5.85966 8.8131C5.67427 8.60329 5.50758 8.3906 5.38469 8.18675C5.26955 7.99576 5.15625 7.75396 5.15625 7.49989C5.15625 7.24582 5.26955 7.00401 5.38469 6.81303C5.50758 6.60917 5.67428 6.39649 5.85966 6.18668C6.23138 5.76598 6.71807 5.31244 7.19267 4.90036C7.6696 4.48627 8.14516 4.10475 8.50065 3.82732C8.67787 3.68902 8.98975 3.45345 9.09533 3.37371L9.0967 3.37267C9.30515 3.21915 9.59888 3.26346 9.7524 3.47191C9.90592 3.68036 9.86138 3.9738 9.65295 4.12732Z" fill="#686E7E"/>
</svg>
