<svg width="20" height="20" viewBox="0 0 20 20" fill="none" xmlns="http://www.w3.org/2000/svg">
<path d="M2.5 10C2.50002 9.6307 2.66237 9.30162 2.79869 9.0755C2.9488 8.82649 3.1475 8.57436 3.35989 8.33398C3.78635 7.85133 4.33907 7.33695 4.87033 6.8757C5.40572 6.41086 5.93866 5.98335 6.33627 5.67306C6.53356 5.51909 6.88219 5.25577 7.00251 5.1649L7.00583 5.16239C7.37641 4.88947 7.89808 4.96863 8.171 5.33922C8.44391 5.70978 8.36476 6.2314 7.99423 6.50434C7.88329 6.58814 7.55302 6.83763 7.36164 6.98698C6.978 7.28637 6.46928 7.69464 5.963 8.13421C5.56421 8.48045 5.17853 8.83614 4.85971 9.16667L16.6667 9.16667C17.1269 9.16667 17.5 9.53976 17.5 10C17.5 10.4602 17.1269 10.8333 16.6667 10.8333L4.85971 10.8333C5.17853 11.1639 5.56421 11.5196 5.963 11.8658C6.46928 12.3054 6.978 12.7136 7.36164 13.013C7.55303 13.1624 7.88329 13.4119 7.99424 13.4957C8.36476 13.7686 8.44391 14.2902 8.171 14.6608C7.89808 15.0314 7.37641 15.1105 7.00583 14.8376L7.00274 14.8353C6.88242 14.7444 6.53357 14.4809 6.33627 14.3269C5.93867 14.0167 5.40572 13.5891 4.87033 13.1243C4.33907 12.663 3.78635 12.1487 3.35989 11.666C3.1475 11.4256 2.9488 11.1735 2.79869 10.9245C2.66237 10.6984 2.50001 10.3693 2.5 10C2.5 10 2.5 9.99999 2.5 10Z" fill="white" fill-opacity="0.9"/>
</svg>
