<svg width="20" height="20" viewBox="0 0 20 20" fill="none" xmlns="http://www.w3.org/2000/svg">
<path d="M15.163 4.83687C14.9221 4.59595 14.6043 4.47628 14.3703 4.40802C14.1117 4.33255 13.8192 4.28274 13.525 4.24839C12.9344 4.17943 12.2412 4.16228 11.5966 4.16732C10.9469 4.17241 10.3232 4.20034 9.8635 4.22679C9.63313 4.24005 9.44275 4.25301 9.30943 4.2627C9.24387 4.26746 9.13658 4.27592 9.09862 4.27891L9.09671 4.27906C8.6381 4.31772 8.29766 4.72084 8.33632 5.17945C8.37498 5.63804 8.77846 5.97843 9.23703 5.93981C9.27 5.93721 9.36715 5.92956 9.43022 5.92498C9.55642 5.91581 9.73837 5.90342 9.95926 5.8907C10.4021 5.86522 10.9965 5.83874 11.6096 5.83394C12.0769 5.83028 12.5418 5.83939 12.9526 5.86877L4.41074 14.4106C4.08531 14.736 4.08531 15.2637 4.41074 15.5891C4.73618 15.9145 5.26382 15.9145 5.58925 15.5891L14.1311 7.04722C14.1605 7.45803 14.1696 7.92298 14.1659 8.39028C14.1611 9.00337 14.1346 9.59781 14.1092 10.0406C14.0964 10.2615 14.0841 10.4435 14.0749 10.5697C14.0703 10.6327 14.0626 10.7303 14.06 10.7632C14.0214 11.2218 14.3618 11.6249 14.8204 11.6636C15.279 11.7022 15.6822 11.3613 15.7208 10.9027L15.7209 10.9017C15.7238 10.8645 15.7324 10.7565 15.7372 10.6905C15.7469 10.5571 15.7598 10.3668 15.7731 10.1364C15.7995 9.6767 15.8275 9.05296 15.8326 8.40334C15.8376 7.75873 15.8205 7.0655 15.7515 6.4749C15.7172 6.18068 15.6674 5.88816 15.5919 5.62955C15.5236 5.39564 15.4039 5.0778 15.163 4.83687Z" fill="#0B7BE3"/>
</svg>
