<svg width="8" height="8" viewBox="0 0 8 8" fill="none" xmlns="http://www.w3.org/2000/svg">
<path d="M3.63999 7.68001C3.56666 7.24668 3.37332 6.78001 3.05999 6.28001C2.74666 5.77334 2.29999 5.30334 1.71999 4.87001C1.14666 4.43668 0.573324 4.16001 -9.73791e-06 4.04001V3.62001C0.566657 3.48668 1.10999 3.24001 1.62999 2.88001C2.15666 2.51334 2.59666 2.07334 2.94999 1.56001C3.30999 1.03334 3.53999 0.513343 3.63999 9.65595e-06H4.05999C4.11999 0.333343 4.23999 0.676676 4.41999 1.03001C4.59999 1.37668 4.82999 1.71001 5.10999 2.03001C5.39666 2.34334 5.71666 2.62668 6.06999 2.88001C6.59666 3.25334 7.13332 3.50001 7.67999 3.62001V4.04001C7.31332 4.11334 6.93332 4.26334 6.53999 4.49001C6.15332 4.71668 5.79332 4.98668 5.45999 5.30001C5.12666 5.60668 4.85332 5.93001 4.63999 6.27001C4.32666 6.77001 4.13332 7.24001 4.05999 7.68001H3.63999Z" fill="#999FAB"/>
</svg>
