<svg width="32" height="32" viewBox="0 0 32 32" fill="none" xmlns="http://www.w3.org/2000/svg">
<path fill-rule="evenodd" clip-rule="evenodd" d="M15.9993 30.3334C8.08335 30.3334 1.66602 23.9161 1.66602 16.0001C1.66602 8.08408 8.08335 1.66675 15.9993 1.66675C23.9153 1.66675 30.3327 8.08408 30.3327 16.0001C30.3327 23.9161 23.9153 30.3334 15.9993 30.3334ZM21.9727 12.5041C22.6194 12.1507 22.8567 11.3401 22.5034 10.6934C22.15 10.0481 21.3393 9.81075 20.6927 10.1641C18.2553 11.4974 16.2393 14.0708 14.8833 16.1468C14.382 16.9134 13.954 17.6401 13.6114 18.2548C13.2927 17.9454 12.9767 17.6761 12.6927 17.4521C12.3233 17.1601 11.99 16.9294 11.7474 16.7694L11.3273 16.5094C10.6873 16.1441 9.87269 16.3667 9.50869 17.0067C9.14336 17.6454 9.36602 18.4601 10.0047 18.8254L10.286 19.0001C10.4767 19.1254 10.7434 19.3094 11.0394 19.5441C11.65 20.0268 12.3073 20.6588 12.722 21.3521C12.9767 21.7761 13.4447 22.0254 13.9394 21.9988C14.434 21.9708 14.8727 21.6721 15.0794 21.2214L15.21 20.9481C15.3007 20.7627 15.4354 20.4934 15.6114 20.1601C15.9634 19.4948 16.4767 18.5827 17.1154 17.6041C18.4274 15.5974 20.1447 13.5041 21.9727 12.5041Z" fill="#049741"/>
</svg>
