<svg width="24" height="24" viewBox="0 0 24 24" fill="none" xmlns="http://www.w3.org/2000/svg">
<path d="M1.83887 8.18848C3.77457 3.0794 9.32617 0.176527 14.7334 1.62012C20.4929 3.15797 23.9235 9.05025 22.3809 14.7881C20.8383 20.5247 14.9136 23.9174 9.15527 22.3799C4.87707 21.2376 1.88645 17.6947 1.26074 13.5986C1.17926 13.0651 1.54654 12.5659 2.08008 12.4844C2.61333 12.4032 3.11171 12.7696 3.19336 13.3027C3.70512 16.6536 6.15282 19.5548 9.65918 20.4912C14.3856 21.7532 19.2331 18.9668 20.4932 14.2812C21.7528 9.59683 18.9547 4.77048 14.2295 3.50879C10.7083 2.56859 7.11885 3.87635 4.99707 6.54199C4.84475 6.73362 4.86802 7.00746 5.04102 7.18066L6.04785 8.18848C6.1809 8.32152 6.19392 8.54139 6.18164 8.74316C6.14884 9.28189 5.68521 9.69198 5.14648 9.65918L2.69336 9.50977C2.38354 9.49087 2.10128 9.32598 1.93262 9.06543C1.76402 8.80465 1.72893 8.47889 1.83887 8.18848ZM12 7C12.5522 7.00009 13 7.44779 13 8V11.5859L14.707 13.293C15.0975 13.6835 15.0974 14.3165 14.707 14.707C14.3165 15.0975 13.6835 15.0975 13.293 14.707L11.293 12.707C11.1054 12.5195 11 12.2652 11 12V8C11 7.44773 11.4477 7 12 7Z" fill="white" fill-opacity="0.9"/>
</svg>
