<svg width="24" height="24" viewBox="0 0 24 24" fill="none" xmlns="http://www.w3.org/2000/svg">
<path d="M1.83984 8.18848C3.77555 3.0794 9.32715 0.176527 14.7344 1.62012C20.4939 3.15797 23.9245 9.05025 22.3818 14.7881C20.8393 20.5247 14.9146 23.9174 9.15625 22.3799C4.87805 21.2376 1.88742 17.6947 1.26172 13.5986C1.18023 13.0651 1.54752 12.5659 2.08105 12.4844C2.6143 12.4032 3.11268 12.7696 3.19434 13.3027C3.7061 16.6536 6.1538 19.5548 9.66016 20.4912C14.3866 21.7532 19.2341 18.9668 20.4941 14.2812C21.7537 9.59683 18.9557 4.77048 14.2305 3.50879C10.7093 2.56859 7.11983 3.87635 4.99805 6.54199C4.84573 6.73362 4.869 7.00746 5.04199 7.18066L6.04883 8.18848C6.18187 8.32152 6.1949 8.54139 6.18262 8.74316C6.14982 9.28189 5.68619 9.69198 5.14746 9.65918L2.69434 9.50977C2.38452 9.49087 2.10225 9.32598 1.93359 9.06543C1.765 8.80465 1.72991 8.47889 1.83984 8.18848ZM12.001 7C12.5532 7.00009 13.001 7.44779 13.001 8V11.5859L14.708 13.293C15.0984 13.6835 15.0984 14.3165 14.708 14.707C14.3175 15.0975 13.6845 15.0975 13.2939 14.707L11.2939 12.707C11.1064 12.5195 11.001 12.2652 11.001 12V8C11.001 7.44773 11.4487 7 12.001 7Z" fill="#686E7E"/>
</svg>
