<svg width="20" height="20" viewBox="0 0 20 20" fill="none" xmlns="http://www.w3.org/2000/svg">
<path d="M9.1875 1.875C9.63617 1.875 9.99991 2.23885 10 2.6875C10 3.13623 9.63623 3.5 9.1875 3.5C7.63247 3.5 6.54779 3.50229 5.72949 3.6123C4.93477 3.71917 4.51366 3.91411 4.21387 4.21387C3.91407 4.51366 3.71821 4.93473 3.61133 5.72949C3.50132 6.54776 3.5 7.63256 3.5 9.1875V10.8125C3.5 12.3675 3.50132 13.4522 3.61133 14.2705C3.71819 15.0654 3.91409 15.4863 4.21387 15.7861C4.51368 16.0859 4.93464 16.2818 5.72949 16.3887C6.54779 16.4987 7.63247 16.5 9.1875 16.5H10.8125C12.3675 16.5 13.4522 16.4987 14.2705 16.3887C15.0654 16.2818 15.4863 16.0859 15.7861 15.7861C16.0859 15.4863 16.2818 15.0654 16.3887 14.2705C16.4987 13.4522 16.5 12.3675 16.5 10.8125C16.5001 10.3638 16.8638 10 17.3125 10C17.7612 10 18.1249 10.3638 18.125 10.8125V10.8721C18.125 12.3536 18.1253 13.5481 17.999 14.4873C17.8679 15.4623 17.5875 16.2835 16.9355 16.9355C16.2836 17.5875 15.4623 17.8679 14.4873 17.999C13.5481 18.1253 12.3536 18.125 10.8721 18.125H9.12793C7.64643 18.125 6.45188 18.1253 5.5127 17.999C4.53775 17.8679 3.71644 17.5875 3.06445 16.9355C2.41248 16.2835 2.13208 15.4623 2.00098 14.4873C1.8747 13.5481 1.87498 12.3536 1.875 10.8721V9.12793C1.87498 7.64673 1.87477 6.45276 2.00098 5.51367C2.13205 4.53876 2.41266 3.71744 3.06445 3.06543C3.71645 2.41343 4.53773 2.1321 5.5127 2.00098C6.45188 1.87471 7.64643 1.87498 9.12793 1.875H9.1875ZM10.3613 5.31445C11.5012 4.17461 13.3167 4.12292 14.5186 5.15918C14.8671 5.45975 14.906 5.98643 14.6055 6.33496C14.3049 6.68349 13.7782 6.72245 13.4297 6.42188C12.8839 5.95136 12.0582 5.97508 11.54 6.49316L9.57422 8.45898C9.03108 9.00213 9.03114 9.8826 9.57422 10.4258C10.1174 10.969 10.9978 10.969 11.541 10.4258C11.8664 10.1005 12.3943 10.1005 12.7197 10.4258C13.0451 10.7512 13.045 11.279 12.7197 11.6045C11.5257 12.7985 9.58955 12.7985 8.39551 11.6045C7.20155 10.4104 7.2015 8.47429 8.39551 7.28027L10.3613 5.31445ZM13.1143 2.5625C14.3083 1.36865 16.2435 1.3686 17.4375 2.5625C18.6315 3.75655 18.6315 5.69267 17.4375 6.88672L15.4717 8.85254C14.3317 9.99229 12.5162 10.0442 11.3145 9.00781C10.966 8.70728 10.9271 8.18056 11.2275 7.83203C11.5281 7.4835 12.0548 7.44454 12.4033 7.74512C12.949 8.21576 13.7748 8.19183 14.293 7.67383L16.2598 5.70801C16.8026 5.16495 16.8025 4.28436 16.2598 3.74121C15.7166 3.19804 14.8352 3.19804 14.292 3.74121C13.9667 4.06619 13.4396 4.06615 13.1143 3.74121C12.7888 3.41578 12.7888 2.88794 13.1143 2.5625Z" fill="#686E7E"/>
</svg>
