<svg width="20" height="20" viewBox="0 0 20 20" fill="none" xmlns="http://www.w3.org/2000/svg">
<path fill-rule="evenodd" clip-rule="evenodd" d="M11.2885 2.7085C12.821 2.7085 14.0245 2.7085 14.9733 2.81566C15.9418 2.92506 16.7271 3.15318 17.38 3.66873C17.5754 3.82307 17.7566 3.99353 17.9213 4.17832C18.4765 4.801 18.7244 5.55575 18.8425 6.48171C18.8561 6.58826 18.8628 6.64153 18.8506 6.68832C18.8311 6.76311 18.7737 6.8283 18.702 6.85713C18.6571 6.87517 18.601 6.87516 18.4887 6.87516H1.509C1.39669 6.87516 1.34054 6.87517 1.29566 6.85713C1.22394 6.8283 1.16654 6.76311 1.14701 6.68832C1.13479 6.64153 1.14159 6.58826 1.15518 6.48171C1.27326 5.55575 1.52116 4.801 2.0763 4.17832C2.24105 3.99353 2.42225 3.82307 2.61768 3.66873C3.2705 3.15318 4.05583 2.92506 5.0243 2.81566C5.97312 2.7085 7.17671 2.7085 8.70922 2.7085H11.2885ZM18.8763 8.19749C18.9493 8.26981 18.9506 8.38467 18.9529 8.61441C18.9561 8.92591 18.9569 9.25488 18.9571 9.60224L18.9571 10.0441C18.9571 11.4808 18.9571 12.6191 18.8425 13.5187C18.7244 14.4446 18.4765 15.1993 17.9213 15.822C17.7566 16.0068 17.5754 16.1772 17.38 16.3316C16.7271 16.8472 15.9418 17.0752 14.9733 17.1847C14.0245 17.2918 12.821 17.2918 11.2884 17.2918H8.70919C7.17668 17.2918 5.97312 17.2918 5.0243 17.1847C4.05583 17.0752 3.27049 16.8472 2.61768 16.3316C2.42225 16.1772 2.24105 16.0068 2.0763 15.822C1.52115 15.1993 1.27326 14.4446 1.15518 13.5187C1.0596 12.769 1.04367 11.8536 1.04102 10.7378V9.26118C1.04155 9.03764 1.04262 8.82214 1.04475 8.61441C1.04712 8.38467 1.04829 8.26981 1.12135 8.19749C1.18398 8.1355 1.27797 8.12663 1.44932 8.12537L18.456 8.12516C18.6875 8.12516 18.8032 8.12517 18.8763 8.19749ZM10.4155 12.7085H9.16548C8.82031 12.7085 8.54048 12.9883 8.54048 13.3335C8.54048 13.6787 8.82031 13.9585 9.16548 13.9585H10.4155C10.7606 13.9585 11.0405 13.6787 11.0405 13.3335C11.0405 12.9883 10.7606 12.7085 10.4155 12.7085ZM15.8321 12.7085H12.9155C12.5703 12.7085 12.2905 12.9883 12.2905 13.3335C12.2905 13.6787 12.5703 13.9585 12.9155 13.9585H15.8321C16.1773 13.9585 16.4571 13.6787 16.4571 13.3335C16.4571 12.9883 16.1773 12.7085 15.8321 12.7085Z" fill="white" fill-opacity="0.9"/>
</svg>
