<svg width="20" height="20" viewBox="0 0 20 20" fill="none" xmlns="http://www.w3.org/2000/svg">
<path fill-rule="evenodd" clip-rule="evenodd" d="M11.2895 2.70825C12.822 2.70825 14.0255 2.70825 14.9743 2.81542C15.9428 2.92482 16.7281 3.15294 17.381 3.66849C17.5764 3.82283 17.7575 3.99329 17.9223 4.17808C18.4774 4.80076 18.7254 5.5555 18.8435 6.48147C18.857 6.58801 18.8638 6.64128 18.8516 6.68807C18.832 6.76287 18.7747 6.82805 18.7029 6.85689C18.6581 6.87493 18.602 6.87492 18.4896 6.87492H1.50998C1.39767 6.87492 1.34151 6.87493 1.29664 6.85689C1.22492 6.82805 1.16752 6.76287 1.14799 6.68807C1.13577 6.64128 1.14257 6.58801 1.15615 6.48147C1.27423 5.5555 1.52213 4.80076 2.07728 4.17808C2.24203 3.99329 2.42322 3.82283 2.61866 3.66849C3.27147 3.15294 4.05681 2.92482 5.02527 2.81542C5.9741 2.70825 7.17769 2.70825 8.7102 2.70825H11.2895ZM18.8773 8.19725C18.9503 8.26956 18.9515 8.38442 18.9539 8.61417C18.9571 8.92567 18.9578 9.25464 18.958 9.60199L18.9581 10.0439C18.9581 11.4806 18.9581 12.6188 18.8435 13.5184C18.7254 14.4443 18.4774 15.1991 17.9223 15.8218C17.7575 16.0065 17.5764 16.177 17.381 16.3313C16.7281 16.8469 15.9428 17.075 14.9743 17.1844C14.0255 17.2916 12.8219 17.2916 11.2894 17.2916H8.71017C7.17766 17.2916 5.9741 17.2916 5.02527 17.1844C4.05681 17.075 3.27147 16.8469 2.61866 16.3313C2.42322 16.177 2.24203 16.0065 2.07728 15.8218C1.52213 15.1991 1.27423 14.4443 1.15615 13.5184C1.06058 12.7688 1.04465 11.8533 1.04199 10.7376V9.26094C1.04253 9.03739 1.0436 8.8219 1.04573 8.61417C1.04809 8.38442 1.04927 8.26956 1.12233 8.19725C1.18496 8.13526 1.27894 8.12639 1.45029 8.12512L18.457 8.12492C18.6884 8.12492 18.8042 8.12493 18.8773 8.19725ZM10.4165 12.7083H9.16646C8.82128 12.7083 8.54146 12.9881 8.54146 13.3333C8.54146 13.6784 8.82128 13.9583 9.16646 13.9583H10.4165C10.7616 13.9583 11.0415 13.6784 11.0415 13.3333C11.0415 12.9881 10.7616 12.7083 10.4165 12.7083ZM15.8331 12.7083H12.9165C12.5713 12.7083 12.2915 12.9881 12.2915 13.3333C12.2915 13.6784 12.5713 13.9583 12.9165 13.9583H15.8331C16.1783 13.9583 16.4581 13.6784 16.4581 13.3333C16.4581 12.9881 16.1783 12.7083 15.8331 12.7083Z" fill="#686E7E"/>
</svg>
