<svg width="20" height="20" viewBox="0 0 20 20" fill="none" xmlns="http://www.w3.org/2000/svg">
<path d="M14.1664 17.5C14.6265 17.5 15.0002 17.8729 15.0004 18.333C15.0004 18.7932 14.6266 19.167 14.1664 19.167H5.83337C5.37314 19.167 5.00037 18.7932 5.00037 18.333C5.00054 17.8729 5.37325 17.5 5.83337 17.5H14.1664ZM10.0004 0.833008C10.6 0.83326 10.968 1.27175 11.2074 1.64941C11.4531 2.03713 11.7073 2.59598 12.0082 3.25879C12.3969 4.11515 12.7474 5.00432 13.1937 5.83301C13.4319 6.27517 13.8527 6.52772 14.3656 6.3457C14.6487 6.2452 14.9224 6.11605 15.1967 5.99414C15.7451 5.75032 16.4499 5.33161 17.0726 5.50977C17.5966 5.65971 17.9697 6.09531 18.0922 6.60449C18.1665 6.91391 18.1018 7.23168 18.0258 7.50488C17.9472 7.78732 17.8187 8.14154 17.6644 8.56836L16.2543 12.4707C15.9667 13.2666 15.735 13.9096 15.4945 14.4082C15.0028 15.4276 14.2268 16.05 13.0912 16.1875C12.5738 16.2501 11.9388 16.25 11.1674 16.25H8.8324C8.06096 16.25 7.42596 16.2501 6.90857 16.1875C5.77297 16.05 4.99692 15.4276 4.50525 14.4082C4.2648 13.9096 4.03303 13.2665 3.74548 12.4707L2.33533 8.56836C2.18109 8.14153 2.0526 7.78733 1.974 7.50488C1.89798 7.23167 1.83324 6.91391 1.90759 6.60449C2.03002 6.0953 2.40318 5.6597 2.92712 5.50977C3.56052 5.32857 4.27297 5.75807 4.83044 6.00586C5.19769 6.16908 5.44085 6.27708 5.63416 6.3457C6.147 6.52769 6.56783 6.27516 6.80603 5.83301C7.25238 5.00433 7.60285 4.11514 7.99158 3.25879C8.29242 2.59597 8.54668 2.03713 8.79236 1.64941C9.03182 1.27164 9.40048 0.833008 10.0004 0.833008ZM9.99939 10.833C9.31223 10.833 8.75542 11.3928 8.75525 12.083C8.75525 12.7734 9.31212 13.333 9.99939 13.333H10.0101C10.6974 13.333 11.2552 12.7733 11.2552 12.083C11.2551 11.3928 10.6973 10.833 10.0101 10.833H9.99939Z" fill="#FF8418"/>
</svg>
