<svg width="24" height="24" viewBox="0 0 24 24" fill="none" xmlns="http://www.w3.org/2000/svg">
<path d="M17 21C17.5523 21 18 21.4477 18 22C18 22.5523 17.5523 23 17 23H7C6.44772 23 6 22.5523 6 22C6 21.4477 6.44772 21 7 21H17ZM12 1C12.7199 1.00009 13.1619 1.52613 13.4492 1.97949C13.7441 2.4448 14.0481 3.11563 14.4092 3.91113C14.8757 4.93877 15.2964 6.00557 15.832 7C16.1179 7.53052 16.6229 7.83266 17.2383 7.61426C17.5781 7.49364 17.9061 7.33871 18.2354 7.19238C18.8936 6.89981 19.74 6.39848 20.4873 6.6123C21.1159 6.79231 21.5631 7.31485 21.71 7.92578C21.7991 8.29701 21.7221 8.67807 21.6309 9.00586C21.5366 9.34475 21.3823 9.76915 21.1973 10.2812L19.5049 14.9648C19.1598 15.9198 18.8813 16.6907 18.5928 17.2891C18.0028 18.5125 17.0728 19.2597 15.71 19.4248C15.089 19.5 14.3273 19.5 13.4014 19.5H10.5986C9.67277 19.5 8.91095 19.5 8.29004 19.4248C6.9272 19.2598 5.99625 18.5125 5.40625 17.2891C5.11777 16.6908 4.83913 15.9197 4.49414 14.9648L2.80176 10.2812C2.61676 9.76929 2.46343 9.34469 2.36914 9.00586C2.27795 8.67812 2.19997 8.29697 2.28906 7.92578C2.43598 7.31474 2.88394 6.79222 3.5127 6.6123C4.27272 6.39486 5.12694 6.90967 5.7959 7.20703C6.23697 7.40307 6.52964 7.53189 6.76172 7.61426C7.37705 7.83252 7.88216 7.53054 8.16797 7C8.70356 6.00564 9.1234 4.93871 9.58984 3.91113C9.95092 3.11561 10.255 2.44481 10.5498 1.97949C10.8372 1.52603 11.2798 1 12 1ZM11.999 13C11.1743 13 10.5059 13.6716 10.5059 14.5C10.5059 15.3284 11.1743 16 11.999 16H12.0127C12.8373 15.9999 13.5059 15.3283 13.5059 14.5C13.5059 13.6717 12.8373 13.0001 12.0127 13H11.999Z" fill="white" fill-opacity="0.9"/>
</svg>
