<svg width="24" height="24" viewBox="0 0 24 24" fill="none" xmlns="http://www.w3.org/2000/svg">
<path d="M20 15.4998C20.5522 15.4998 20.9999 15.9476 21 16.4998C21 17.1418 20.9682 17.7258 20.8574 18.2302C20.7441 18.746 20.5347 19.2404 20.1377 19.6375C19.7406 20.0346 19.2463 20.2439 18.7305 20.3572C18.226 20.468 17.6421 20.4998 17 20.4998H7C6.35786 20.4998 5.774 20.468 5.26953 20.3572C4.75374 20.2439 4.25942 20.0346 3.8623 19.6375C3.46526 19.2404 3.25588 18.746 3.14258 18.2302C3.03179 17.7258 3 17.1418 3 16.4998C3.00011 15.9476 3.44778 15.4998 4 15.4998C4.55222 15.4998 4.99989 15.9476 5 16.4998C5 17.0986 5.03281 17.5108 5.09668 17.8015C5.158 18.0804 5.23373 18.1807 5.27637 18.2234C5.31898 18.266 5.41927 18.3417 5.69824 18.4031C5.98896 18.4669 6.40114 18.4998 7 18.4998H17C17.5989 18.4998 18.011 18.4669 18.3018 18.4031C18.5807 18.3417 18.681 18.266 18.7236 18.2234C18.7663 18.1807 18.842 18.0804 18.9033 17.8015C18.9672 17.5108 19 17.0986 19 16.4998C19.0001 15.9476 19.4478 15.4998 20 15.4998ZM12.0059 3.49976C12.5581 3.49976 13.0059 3.94747 13.0059 4.49976V10.9998H13.5889C13.7644 10.9996 13.98 10.9992 14.1562 11.0212L14.1592 11.0222C14.2856 11.038 14.8624 11.1099 15.1367 11.6755C15.4113 12.2422 15.1093 12.7422 15.0439 12.8503L15.042 12.8542C14.9498 13.0073 14.8154 13.1785 14.7051 13.3191L14.6816 13.3494C14.387 13.7252 14.0045 14.2093 13.624 14.6003C13.4343 14.7953 13.2171 14.9963 12.9863 15.155C12.7811 15.2962 12.4307 15.4998 12 15.4998C11.5693 15.4998 11.2189 15.2962 11.0137 15.155C10.7829 14.9963 10.5657 14.7953 10.376 14.6003C9.99568 14.2095 9.61392 13.7251 9.31934 13.3494L9.29492 13.3191C9.18458 13.1785 9.05022 13.0073 8.95801 12.8542L8.95605 12.8503C8.89075 12.7422 8.58869 12.2422 8.86328 11.6755C9.13764 11.1099 9.71437 11.038 9.84082 11.0222L9.84375 11.0212C10.02 10.9992 10.2356 10.9996 10.4111 10.9998H11.0059V4.49976C11.0059 3.94747 11.4536 3.49976 12.0059 3.49976Z" fill="#686E7E"/>
</svg>
