<svg width="24" height="24" viewBox="0 0 24 24" fill="none" xmlns="http://www.w3.org/2000/svg">
<path d="M15.0254 13.25C15.4698 13.25 15.8409 13.2497 16.1455 13.2705C16.4626 13.2921 16.7624 13.3387 17.0527 13.459C17.7264 13.7381 18.2619 14.2736 18.541 14.9473C18.6613 15.2376 18.7079 15.5374 18.7295 15.8545C18.7327 15.9013 18.7321 15.95 18.7344 16H21C21.5523 16 22 16.4477 22 17C22 17.5523 21.5523 18 21 18H18.7344C18.7321 18.05 18.7327 18.0987 18.7295 18.1455C18.7079 18.4626 18.6613 18.7624 18.541 19.0527C18.2619 19.7264 17.7264 20.2619 17.0527 20.541C16.7624 20.6613 16.4626 20.7079 16.1455 20.7295C15.8409 20.7503 15.4698 20.75 15.0254 20.75H14.9746C14.5302 20.75 14.1591 20.7503 13.8545 20.7295C13.5374 20.7079 13.2376 20.6613 12.9473 20.541C12.2736 20.2619 11.7381 19.7264 11.459 19.0527C11.3387 18.7624 11.2921 18.4626 11.2705 18.1455C11.2497 17.8409 11.25 17.4698 11.25 17.0254V16.9746C11.25 16.5302 11.2497 16.1591 11.2705 15.8545C11.2921 15.5374 11.3387 15.2376 11.459 14.9473C11.7381 14.2736 12.2736 13.7381 12.9473 13.459C13.2376 13.3387 13.5374 13.2921 13.8545 13.2705C14.1591 13.2497 14.5302 13.25 14.9746 13.25H15.0254ZM9 16C9.55228 16 10 16.4477 10 17C10 17.5523 9.55228 18 9 18H3C2.44772 18 2 17.5523 2 17C2 16.4477 2.44772 16 3 16H9ZM9.02539 3.25C9.46979 3.24999 9.84093 3.24973 10.1455 3.27051C10.4626 3.29215 10.7624 3.33872 11.0527 3.45898C11.7264 3.73809 12.2619 4.27358 12.541 4.94727C12.6613 5.23762 12.7079 5.53744 12.7295 5.85449C12.7503 6.15907 12.75 6.53021 12.75 6.97461V7.02539C12.75 7.46979 12.7503 7.84093 12.7295 8.14551C12.7079 8.46256 12.6613 8.76238 12.541 9.05273C12.2619 9.72642 11.7264 10.2619 11.0527 10.541C10.7624 10.6613 10.4626 10.7079 10.1455 10.7295C9.84093 10.7503 9.46979 10.75 9.02539 10.75H8.97461C8.53021 10.75 8.15907 10.7503 7.85449 10.7295C7.53744 10.7079 7.23762 10.6613 6.94727 10.541C6.27358 10.2619 5.73809 9.72642 5.45898 9.05273C5.33872 8.76238 5.29215 8.46256 5.27051 8.14551C5.26731 8.09868 5.26791 8.05 5.26562 8H3C2.44772 8 2 7.55228 2 7C2 6.44772 2.44772 6 3 6H5.26562C5.26791 5.95 5.26731 5.90132 5.27051 5.85449C5.29215 5.53744 5.33872 5.23762 5.45898 4.94727C5.73809 4.27358 6.27358 3.73809 6.94727 3.45898C7.23762 3.33872 7.53744 3.29215 7.85449 3.27051C8.15907 3.24973 8.53021 3.24999 8.97461 3.25H9.02539ZM21 6C21.5523 6 22 6.44772 22 7C22 7.55228 21.5523 8 21 8H15C14.4477 8 14 7.55228 14 7C14 6.44772 14.4477 6 15 6H21Z" fill="white"/>
</svg>
