<svg width="24" height="24" viewBox="0 0 24 24" fill="none" xmlns="http://www.w3.org/2000/svg">
<path d="M12.0991 3.24064C8.49712 1.40579 5.58634 2.46864 4.09522 3.62724C3.87863 3.795 3.6083 4.00442 3.42925 4.37028C3.24904 4.73852 3.25007 5.09816 3.25099 5.42117L3.25085 20.7504C3.25085 21.3027 3.69857 21.7504 4.25086 21.7504C4.80314 21.7504 5.25086 21.3027 5.25086 20.7504L5.25085 14.9582C5.25085 14.7994 5.25085 14.7201 5.29063 14.6507C5.33041 14.5814 5.39349 14.5445 5.51967 14.4707C6.73863 13.7579 8.81125 13.2492 11.4183 14.5772C15.1331 16.4696 18.3463 15.7039 19.9305 14.8379C20.0878 14.7536 20.3971 14.5878 20.5763 14.2857C20.7567 13.9814 20.753 13.5954 20.7511 13.4012L20.7511 5.83407C20.7512 5.45443 20.7512 5.10904 20.722 4.84192C20.6959 4.60272 20.6276 4.16558 20.2578 3.88435C20.0496 3.72603 19.8212 3.68027 19.6478 3.66992C19.4771 3.65973 19.3058 3.68065 19.154 3.70753C18.8629 3.7591 18.451 3.87332 18.0209 3.9926C16.6038 4.38552 14.5011 4.46422 12.0991 3.24064Z" fill="#686E7E"/>
</svg>
