<svg width="24" height="24" viewBox="0 0 24 24" fill="none" xmlns="http://www.w3.org/2000/svg">
<path d="M12 22.75C17.9371 22.75 22.75 17.9371 22.75 12C22.75 6.06294 17.9371 1.25 12 1.25C6.06294 1.25 1.25 6.06294 1.25 12C1.25 17.9371 6.06294 22.75 12 22.75ZM12 18C8.68629 18 6 15.3137 6 12C6 8.68629 8.68629 6 12 6C13.6566 6 15.1575 6.67312 16.2422 7.75781C16.6327 8.14834 16.6327 8.78135 16.2422 9.17188C15.8516 9.56202 15.2185 9.56227 14.8281 9.17188C14.1032 8.44692 13.1048 8 12 8C9.79086 8 8 9.79086 8 12C8 14.2091 9.79086 16 12 16C13.8638 16 15.43 14.7252 15.874 13H12C11.4477 13 11 12.5523 11 12C11 11.4477 11.4477 11 12 11H17C17.5523 11 18 11.4477 18 12C18 15.3137 15.3137 18 12 18Z" fill="white"/>
</svg>
