<svg width="20" height="20" viewBox="0 0 20 20" fill="none" xmlns="http://www.w3.org/2000/svg">
<path fill-rule="evenodd" clip-rule="evenodd" d="M5.0308 1.04199H4.96987C4.35392 1.04198 3.84764 1.04197 3.43807 1.08092C3.01246 1.12138 2.62717 1.20827 2.27671 1.42303C1.92878 1.63625 1.63625 1.92878 1.42303 2.27671C1.20827 2.62717 1.12138 3.01246 1.08092 3.43807C1.04197 3.84764 1.04198 4.3539 1.04199 4.96985V5.03078C1.04198 5.64673 1.04197 6.15301 1.08092 6.56258C1.12138 6.98819 1.20827 7.37348 1.42303 7.72394C1.63625 8.07188 1.92878 8.36441 2.27671 8.57762C2.62717 8.79238 3.01246 8.87927 3.43807 8.91973C3.84763 8.95868 4.35388 8.95867 4.96981 8.95866H5.03079C5.64672 8.95867 6.15302 8.95868 6.56258 8.91973C6.98819 8.87927 7.37348 8.79238 7.72394 8.57762C8.07188 8.36441 8.36441 8.07188 8.57762 7.72394C8.79238 7.37348 8.87927 6.98819 8.91973 6.56258C8.95868 6.15302 8.95867 5.64677 8.95866 5.03084V4.96986C8.95867 4.35393 8.95868 3.84763 8.91973 3.43807C8.87927 3.01246 8.79238 2.62717 8.57762 2.27671C8.36441 1.92878 8.07188 1.63625 7.72394 1.42303C7.37348 1.20827 6.98819 1.12138 6.56258 1.08092C6.15301 1.04197 5.64675 1.04198 5.0308 1.04199ZM5.03083 11.042H4.96987C4.35393 11.042 3.84763 11.042 3.43807 11.0809C3.01246 11.1214 2.62717 11.2082 2.27671 11.423C1.92878 11.6362 1.63625 11.9287 1.42303 12.2767C1.20827 12.6272 1.12138 13.0125 1.08092 13.4381C1.04197 13.8477 1.04198 14.3539 1.04199 14.9698V15.0308C1.04198 15.6467 1.04197 16.153 1.08092 16.5626C1.12138 16.9882 1.20827 17.3735 1.42303 17.7239C1.63625 18.0719 1.92878 18.3644 2.27671 18.5777C2.62717 18.7924 3.01246 18.8792 3.43807 18.9197C3.84763 18.9587 4.35386 18.9587 4.96977 18.9587H5.03079C5.6467 18.9587 6.15303 18.9587 6.56258 18.9197C6.98819 18.8792 7.37348 18.7924 7.72394 18.5777C8.07188 18.3644 8.36441 18.0719 8.57762 17.7239C8.79238 17.3735 8.87927 16.9882 8.91973 16.5626C8.95868 16.153 8.95867 15.6467 8.95866 15.0308V14.9698C8.95867 14.3539 8.95868 13.8477 8.91973 13.4381C8.87927 13.0125 8.79238 12.6272 8.57762 12.2767C8.36441 11.9287 8.07188 11.6362 7.72394 11.423C7.37348 11.2082 6.98819 11.1214 6.56258 11.0809C6.15302 11.042 5.64677 11.042 5.03083 11.042ZM15.0308 1.04199C15.6467 1.04198 16.153 1.04197 16.5626 1.08092C16.9882 1.12138 17.3735 1.20827 17.7239 1.42303C18.0719 1.63625 18.3644 1.92878 18.5777 2.27671C18.7924 2.62717 18.8792 3.01246 18.9197 3.43807C18.9587 3.84763 18.9587 4.35386 18.9587 4.96977V5.03079C18.9587 5.64671 18.9587 6.15303 18.9197 6.56258C18.8792 6.98819 18.7924 7.37348 18.5777 7.72394C18.3644 8.07188 18.0719 8.36441 17.7239 8.57762C17.3735 8.79238 16.9882 8.87927 16.5626 8.91973C16.153 8.95868 15.6467 8.95867 15.0308 8.95866H14.9698C14.3539 8.95867 13.8477 8.95868 13.4381 8.91973C13.0125 8.87927 12.6272 8.79238 12.2767 8.57762C11.9287 8.36441 11.6362 8.07188 11.423 7.72394C11.2082 7.37348 11.1214 6.98819 11.0809 6.56258C11.042 6.15302 11.042 5.64677 11.042 5.03083V4.96987C11.042 4.35393 11.042 3.84763 11.0809 3.43807C11.1214 3.01246 11.2082 2.62717 11.423 2.27671C11.6362 1.92878 11.9287 1.63625 12.2767 1.42303C12.6272 1.20827 13.0125 1.12138 13.4381 1.08092C13.8477 1.04197 14.3539 1.04198 14.9698 1.04199H15.0308ZM15.0308 11.042H14.9698C14.3539 11.042 13.8477 11.042 13.4381 11.0809C13.0125 11.1214 12.6272 11.2082 12.2767 11.423C11.9287 11.6362 11.6362 11.9287 11.423 12.2767C11.2082 12.6272 11.1214 13.0125 11.0809 13.4381C11.042 13.8477 11.042 14.3539 11.042 14.9698V15.0308C11.042 15.6467 11.042 16.153 11.0809 16.5626C11.1214 16.9882 11.2082 17.3735 11.423 17.7239C11.6362 18.0719 11.9287 18.3644 12.2767 18.5777C12.6272 18.7924 13.0125 18.8792 13.4381 18.9197C13.8477 18.9587 14.3538 18.9587 14.9697 18.9587H15.0308C15.6467 18.9587 16.153 18.9587 16.5626 18.9197C16.9882 18.8792 17.3735 18.7924 17.7239 18.5777C18.0719 18.3644 18.3644 18.0719 18.5777 17.7239C18.7924 17.3735 18.8792 16.9882 18.9197 16.5626C18.9587 16.153 18.9587 15.6468 18.9587 15.0309V14.9698C18.9587 14.3539 18.9587 13.8477 18.9197 13.4381C18.8792 13.0125 18.7924 12.6272 18.5777 12.2767C18.3644 11.9287 18.0719 11.6362 17.7239 11.423C17.3735 11.2082 16.9882 11.1214 16.5626 11.0809C16.153 11.042 15.6467 11.042 15.0308 11.042Z" fill="#999FAB" fill-opacity="0.7"/>
</svg>
