<svg width="18" height="18" viewBox="0 0 18 18" fill="none" xmlns="http://www.w3.org/2000/svg">
<path fill-rule="evenodd" clip-rule="evenodd" d="M3.98881 2.80654e-07H3.92788C3.31193 -8.88601e-06 2.80565 -1.72077e-05 2.39608 0.0389253C1.97047 0.0793928 1.58518 0.166279 1.23472 0.381042C0.886784 0.594255 0.594255 0.886784 0.381042 1.23472C0.166279 1.58518 0.0793928 1.97047 0.0389253 2.39608C-1.72077e-05 2.80565 -8.88601e-06 3.31191 2.80654e-07 3.92786V3.98879C-8.88601e-06 4.60473 -1.72077e-05 5.11102 0.0389253 5.52059C0.0793928 5.9462 0.166279 6.33149 0.381042 6.68195C0.594254 7.02988 0.886784 7.32242 1.23472 7.53563C1.58518 7.75039 1.97047 7.83727 2.39608 7.87774C2.80564 7.91668 3.31189 7.91667 3.92782 7.91667H3.9888C4.60473 7.91667 5.11103 7.91668 5.52059 7.87774C5.9462 7.83727 6.33149 7.75039 6.68195 7.53563C7.02988 7.32242 7.32242 7.02988 7.53563 6.68195C7.75039 6.33149 7.83727 5.9462 7.87774 5.52059C7.91668 5.11103 7.91667 4.60478 7.91667 3.98885V3.92787C7.91667 3.31194 7.91668 2.80564 7.87774 2.39608C7.83727 1.97047 7.75039 1.58518 7.53563 1.23472C7.32242 0.886784 7.02988 0.594254 6.68195 0.381042C6.33149 0.166279 5.9462 0.0793928 5.52059 0.0389253C5.11102 -1.72077e-05 4.60476 -8.88601e-06 3.98881 2.80654e-07ZM3.98884 10H3.92788C3.31194 10 2.80564 10 2.39608 10.0389C1.97047 10.0794 1.58518 10.1662 1.23472 10.381C0.886784 10.5942 0.594255 10.8867 0.381042 11.2347C0.166279 11.5852 0.0793928 11.9705 0.0389253 12.3961C-1.72077e-05 12.8057 -8.88601e-06 13.3119 2.80654e-07 13.9278V13.9888C-8.88601e-06 14.6047 -1.72077e-05 15.111 0.0389253 15.5206C0.0793928 15.9462 0.166279 16.3315 0.381042 16.6819C0.594254 17.0299 0.886784 17.3224 1.23472 17.5357C1.58518 17.7504 1.97047 17.8372 2.39608 17.8777C2.80563 17.9167 3.31187 17.9167 3.92778 17.9167H3.9888C4.60471 17.9167 5.11103 17.9167 5.52059 17.8777C5.9462 17.8372 6.33149 17.7504 6.68195 17.5357C7.02988 17.3224 7.32242 17.0299 7.53563 16.6819C7.75039 16.3315 7.83727 15.9462 7.87774 15.5206C7.91668 15.111 7.91667 14.6047 7.91667 13.9888V13.9278C7.91667 13.3119 7.91668 12.8057 7.87774 12.3961C7.83727 11.9705 7.75039 11.5852 7.53563 11.2347C7.32242 10.8867 7.02988 10.5942 6.68195 10.381C6.33149 10.1662 5.9462 10.0794 5.52059 10.0389C5.11103 10 4.60478 10 3.98884 10ZM13.9888 2.80654e-07C14.6047 -8.88601e-06 15.111 -1.72077e-05 15.5206 0.0389253C15.9462 0.0793928 16.3315 0.166279 16.6819 0.381042C17.0299 0.594254 17.3224 0.886784 17.5357 1.23472C17.7504 1.58518 17.8372 1.97047 17.8777 2.39608C17.9167 2.80563 17.9167 3.31187 17.9167 3.92778V3.9888C17.9167 4.60472 17.9167 5.11103 17.8777 5.52059C17.8372 5.9462 17.7504 6.33149 17.5357 6.68195C17.3224 7.02988 17.0299 7.32242 16.6819 7.53563C16.3315 7.75039 15.9462 7.83727 15.5206 7.87774C15.111 7.91668 14.6047 7.91667 13.9888 7.91667H13.9278C13.3119 7.91667 12.8057 7.91668 12.3961 7.87774C11.9705 7.83727 11.5852 7.75039 11.2347 7.53563C10.8867 7.32242 10.5942 7.02988 10.381 6.68195C10.1662 6.33149 10.0794 5.9462 10.0389 5.52059C10 5.11103 10 4.60478 10 3.98884V3.92788C10 3.31194 10 2.80564 10.0389 2.39608C10.0794 1.97047 10.1662 1.58518 10.381 1.23472C10.5942 0.886784 10.8867 0.594255 11.2347 0.381042C11.5852 0.166279 11.9705 0.0793928 12.3961 0.0389253C12.8057 -1.72077e-05 13.3119 -8.88601e-06 13.9278 2.80654e-07H13.9888ZM13.9888 10H13.9278C13.3119 10 12.8057 10 12.3961 10.0389C11.9705 10.0794 11.5852 10.1662 11.2347 10.381C10.8867 10.5942 10.5942 10.8867 10.381 11.2347C10.1662 11.5852 10.0794 11.9705 10.0389 12.3961C10 12.8057 10 13.3119 10 13.9278V13.9888C10 14.6047 10 15.111 10.0389 15.5206C10.0794 15.9462 10.1662 16.3315 10.381 16.6819C10.5942 17.0299 10.8867 17.3224 11.2347 17.5357C11.5852 17.7504 11.9705 17.8372 12.3961 17.8777C12.8057 17.9167 13.3118 17.9167 13.9278 17.9167H13.9888C14.6047 17.9167 15.111 17.9167 15.5206 17.8777C15.9462 17.8372 16.3315 17.7504 16.6819 17.5357C17.0299 17.3224 17.3224 17.0299 17.5357 16.6819C17.7504 16.3315 17.8372 15.9462 17.8777 15.5206C17.9167 15.111 17.9167 14.6048 17.9167 13.9889V13.9278C17.9167 13.3119 17.9167 12.8057 17.8777 12.3961C17.8372 11.9705 17.7504 11.5852 17.5357 11.2347C17.3224 10.8867 17.0299 10.5942 16.6819 10.381C16.3315 10.1662 15.9462 10.0794 15.5206 10.0389C15.111 10 14.6047 10 13.9888 10Z" fill="#2A2C33"/>
</svg>
