<svg width="15" height="15" viewBox="0 0 15 15" fill="none" xmlns="http://www.w3.org/2000/svg">
<path d="M8.75 11.4062C9.00888 11.4062 9.21875 11.6161 9.21875 11.875C9.21875 12.1339 9.00888 12.3438 8.75 12.3438H2.5C2.24112 12.3438 2.03125 12.1339 2.03125 11.875C2.03125 11.6161 2.24112 11.4062 2.5 11.4062H8.75ZM12.5 7.03125C12.7589 7.03125 12.9687 7.24112 12.9688 7.5C12.9688 7.75888 12.7589 7.96875 12.5 7.96875H2.5C2.24112 7.96875 2.03125 7.75888 2.03125 7.5C2.03125 7.24112 2.24112 7.03125 2.5 7.03125H12.5ZM12.5 2.65625C12.7589 2.65625 12.9688 2.86612 12.9688 3.125C12.9688 3.38388 12.7589 3.59375 12.5 3.59375H6.25C5.99112 3.59375 5.78125 3.38388 5.78125 3.125C5.78125 2.86612 5.99112 2.65625 6.25 2.65625H12.5Z" fill="#686E7E"/>
</svg>
