<svg width="18" height="18" viewBox="0 0 18 18" fill="none" xmlns="http://www.w3.org/2000/svg">
<path d="M9 0.9375C13.4528 0.9375 17.0625 4.5472 17.0625 9C17.0625 13.4528 13.4528 17.0625 9 17.0625C4.5472 17.0625 0.9375 13.4528 0.9375 9C0.9375 4.5472 4.5472 0.9375 9 0.9375ZM9 2.0625C5.16852 2.0625 2.0625 5.16852 2.0625 9C2.0625 12.8315 5.16852 15.9375 9 15.9375C12.8315 15.9375 15.9375 12.8315 15.9375 9C15.9375 5.16852 12.8315 2.0625 9 2.0625ZM9.00098 12C9.41514 12.0001 9.75098 12.3358 9.75098 12.75C9.75098 13.1642 9.41514 13.4999 9.00098 13.5H8.99414C8.57993 13.5 8.24414 13.1642 8.24414 12.75C8.24414 12.3358 8.57993 12 8.99414 12H9.00098ZM9 4.6875C10.1391 4.6875 11.0625 5.61091 11.0625 6.75C11.0625 7.15975 10.9424 7.54344 10.7354 7.86523C10.6057 8.06665 10.4542 8.25895 10.3145 8.43262C10.2889 8.46437 10.2639 8.49583 10.2393 8.52637C10.1233 8.66987 10.0163 8.80136 9.91797 8.93652C9.67528 9.27006 9.5625 9.52102 9.5625 9.75V10.125C9.5625 10.4357 9.31066 10.6875 9 10.6875C8.68934 10.6875 8.4375 10.4357 8.4375 10.125V9.75C8.4375 9.15081 8.7315 8.65522 9.00781 8.27539C9.12452 8.11499 9.25283 7.95637 9.36914 7.8125C9.39241 7.78372 9.41534 7.75507 9.4375 7.72754C9.57639 7.55492 9.69462 7.40263 9.78906 7.25586C9.88276 7.11019 9.9375 6.93741 9.9375 6.75C9.9375 6.23223 9.51777 5.8125 9 5.8125C8.48223 5.8125 8.0625 6.23223 8.0625 6.75C8.0625 7.06066 7.81066 7.3125 7.5 7.3125C7.18934 7.3125 6.9375 7.06066 6.9375 6.75C6.9375 5.61091 7.86091 4.6875 9 4.6875Z" fill="#686E7E"/>
</svg>
