<svg width="24" height="24" viewBox="0 0 24 24" fill="none" xmlns="http://www.w3.org/2000/svg">
<path d="M11.9998 1.25C12.8658 1.25 13.6404 1.52703 14.4763 1.99609C15.2862 2.45058 16.2147 3.12111 17.3816 3.96484L18.8904 5.05664C19.8265 5.73348 20.5744 6.27401 21.1384 6.77441C21.7209 7.29123 22.1569 7.80702 22.4333 8.45508C22.7104 9.10463 22.7781 9.77046 22.741 10.5381C22.7051 11.2789 22.5675 12.1726 22.3962 13.2871L22.0808 15.3389C21.8375 16.9225 21.6438 18.1836 21.3591 19.166C21.0647 20.1819 20.6501 20.9889 19.9089 21.6055C19.1708 22.2194 18.2907 22.4926 17.2166 22.623C16.1717 22.7499 14.8538 22.75 13.1892 22.75H10.8113C9.14633 22.75 7.8279 22.75 6.78296 22.623C5.70895 22.4926 4.82966 22.2193 4.09155 21.6055C3.3503 20.9889 2.93575 20.182 2.64136 19.166C2.35667 18.1835 2.16206 16.9226 1.9187 15.3389L1.60425 13.2871C1.43297 12.1726 1.29539 11.2789 1.25952 10.5381C1.22236 9.77046 1.28912 9.10463 1.56616 8.45508C1.8426 7.80694 2.27854 7.29128 2.86108 6.77441C3.42525 6.27389 4.17369 5.73369 5.11011 5.05664L6.6189 3.96484C7.78579 3.12112 8.71431 2.45055 9.52417 1.99609C10.3599 1.52715 11.1339 1.25005 11.9998 1.25ZM15.7888 16.3857C15.4495 15.9501 14.8212 15.8717 14.3855 16.2109C13.7647 16.6941 12.9314 17 11.9998 17C11.0681 16.9999 10.2347 16.6941 9.61401 16.2109C9.17821 15.8719 8.54989 15.95 8.21069 16.3857C7.87158 16.8215 7.94991 17.4498 8.3855 17.7891C9.36371 18.5505 10.6312 18.9999 11.9998 19C13.3684 19 14.6358 18.5505 15.614 17.7891C16.0498 17.4498 16.1281 16.8216 15.7888 16.3857Z" fill="#0B7BE3"/>
</svg>
