<svg width="13" height="18" viewBox="0 0 13 18" fill="none" xmlns="http://www.w3.org/2000/svg">
<path fill-rule="evenodd" clip-rule="evenodd" d="M1.09037 7.46528C0.18827 7.46528 0 7.63715 0 8.46065L0 9.9537C0 10.7772 0.18827 10.9491 1.09037 10.9491H3.2711V16.9213C3.2711 17.7448 3.45937 17.9167 4.36147 17.9167H6.54221C7.44431 17.9167 7.63258 17.7448 7.63258 16.9213V10.9491H10.0812C10.7654 10.9491 10.9417 10.8277 11.1296 10.2272L11.5969 8.7341C11.9189 7.70538 11.7205 7.46528 10.5485 7.46528H7.63258V4.97685C7.63258 4.42712 8.12075 3.98148 8.72294 3.98148H11.8263C12.7284 3.98148 12.9167 3.80961 12.9167 2.98611V0.995371C12.9167 0.171867 12.7284 0 11.8263 0L8.72294 0C5.71198 0 3.2711 2.22821 3.2711 4.97685V7.46528H1.09037Z" fill="white"/>
</svg>
