<svg width="32" height="32" viewBox="0 0 32 32" fill="none" xmlns="http://www.w3.org/2000/svg">
<path fill-rule="evenodd" clip-rule="evenodd" d="M15.9993 1.66675C23.9155 1.66675 30.3327 8.084 30.3327 16.0001C30.3327 23.9162 23.9155 30.3334 15.9993 30.3334C8.08327 30.3334 1.66602 23.9162 1.66602 16.0001C1.66602 8.084 8.08327 1.66675 15.9993 1.66675ZM14.7185 14.6667H14.666C13.9296 14.6667 13.3327 15.2637 13.3327 16.0001C13.3327 16.7365 13.9296 17.3334 14.666 17.3334V22.6667C14.666 23.4031 15.2629 24.0001 15.9993 24.0001C16.7357 24.0001 17.3327 23.4031 17.3327 22.6667V17.2809C17.3328 17.0145 17.3331 16.6971 17.2964 16.4243C17.2521 16.0949 17.1336 15.6393 16.7469 15.2526C16.3603 14.8659 15.9045 14.7474 15.5752 14.7031C15.3023 14.6663 14.9851 14.6666 14.7185 14.6667ZM16.0052 9.33341C15.2601 9.33341 14.6659 9.93037 14.6659 10.6667C14.6659 11.4031 15.2601 12.0001 15.9932 12.0001C16.7383 12.0001 17.3325 11.4031 17.3325 10.6667C17.3325 9.93037 16.7383 9.33341 16.0052 9.33341Z" fill="#F94B33"/>
</svg>
