<svg width="20" height="20" viewBox="0 0 20 20" fill="none" xmlns="http://www.w3.org/2000/svg">
<path d="M10.0479 18.542C11.8733 18.542 13.3073 18.5421 14.4268 18.3916C15.5739 18.2374 16.4841 17.9144 17.1992 17.1992C17.9144 16.4841 18.2374 15.5739 18.3916 14.4268C18.5421 13.3073 18.542 11.8733 18.542 10.0479V9.95215C18.542 8.12666 18.5421 6.69271 18.3916 5.57324C18.2374 4.42605 17.9144 3.51594 17.1992 2.80078C16.4841 2.08563 15.5739 1.76264 14.4268 1.6084C13.3073 1.45789 11.8733 1.458 10.0479 1.45801H9.95215C8.12666 1.458 6.69271 1.45789 5.57324 1.6084C4.42605 1.76264 3.51594 2.08563 2.80078 2.80078C2.08563 3.51594 1.76264 4.42605 1.6084 5.57324C1.45789 6.69271 1.458 8.12666 1.45801 9.95215V10.0479C1.458 11.8733 1.45789 13.3073 1.6084 14.4268C1.76264 15.5739 2.08563 16.4841 2.80078 17.1992C3.51594 17.9144 4.42605 18.2374 5.57324 18.3916C6.69271 18.5421 8.12666 18.542 9.95215 18.542H10.0479ZM14.5859 6.25C14.1279 6.2499 13.757 5.87702 13.7568 5.41699C13.7568 4.95682 14.1278 4.58311 14.5859 4.58301H14.5938C15.0518 4.58311 15.4229 4.95681 15.4229 5.41699C15.4227 5.87702 15.0517 6.2499 14.5938 6.25H14.5859ZM10 13.75C7.92893 13.75 6.25 12.0711 6.25 10C6.25 7.92893 7.92893 6.25 10 6.25C12.0711 6.25 13.75 7.92893 13.75 10C13.75 12.0711 12.0711 13.75 10 13.75Z" fill="white"/>
</svg>
