<svg width="20" height="20" viewBox="0 0 20 20" fill="none" xmlns="http://www.w3.org/2000/svg">
<path d="M17.167 14.375C17.4217 14.375 17.6693 14.3879 17.8906 14.4365C18.1189 14.4867 18.3576 14.5832 18.5537 14.7793C18.75 14.9756 18.8473 15.2149 18.8975 15.4434C18.946 15.6647 18.958 15.9123 18.958 16.167V17.167C18.958 17.4217 18.9461 17.6693 18.8975 17.8906C18.8472 18.119 18.7499 18.3575 18.5537 18.5537C18.3575 18.7499 18.119 18.8472 17.8906 18.8975C17.6693 18.9461 17.4217 18.958 17.167 18.958H2.83301C2.57829 18.958 2.3307 18.9461 2.10938 18.8975C1.88097 18.8472 1.64249 18.7499 1.44629 18.5537C1.25009 18.3575 1.15275 18.119 1.10254 17.8906C1.05392 17.6693 1.042 17.4217 1.04199 17.167V16.167C1.04199 15.9123 1.05396 15.6647 1.10254 15.4434C1.15274 15.2149 1.25001 14.9756 1.44629 14.7793C1.64242 14.5832 1.88107 14.4867 2.10938 14.4365C2.3307 14.3879 2.57829 14.375 2.83301 14.375H17.167ZM17.167 7.70801C17.4217 7.70802 17.6693 7.72091 17.8906 7.76953C18.1189 7.81972 18.3576 7.91635 18.5537 8.1123C18.75 8.30859 18.8473 8.54787 18.8975 8.77637C18.9461 8.99778 18.958 9.24517 18.958 9.5V10.5C18.958 10.7548 18.9461 11.0022 18.8975 11.2236C18.8473 11.4521 18.75 11.6914 18.5537 11.8877C18.3576 12.0837 18.1189 12.1803 17.8906 12.2305C17.6693 12.2791 17.4217 12.292 17.167 12.292H2.83301C2.57829 12.292 2.3307 12.2791 2.10938 12.2305C1.88112 12.1803 1.6424 12.0837 1.44629 11.8877C1.25001 11.6914 1.15274 11.4521 1.10254 11.2236C1.0539 11.0022 1.04199 10.7548 1.04199 10.5V9.5C1.04199 9.24518 1.0539 8.99778 1.10254 8.77637C1.15274 8.54787 1.25001 8.30859 1.44629 8.1123C1.6424 7.91635 1.88112 7.81972 2.10938 7.76953C2.3307 7.72091 2.57829 7.70802 2.83301 7.70801H17.167ZM17.167 1.04199C17.4217 1.042 17.6693 1.05392 17.8906 1.10254C18.119 1.15275 18.3575 1.25009 18.5537 1.44629C18.7499 1.64249 18.8472 1.88097 18.8975 2.10938C18.9461 2.3307 18.958 2.57829 18.958 2.83301V3.83301C18.958 4.08771 18.946 4.33531 18.8975 4.55664C18.8473 4.78514 18.75 5.02442 18.5537 5.2207C18.3576 5.41675 18.1189 5.51327 17.8906 5.56348C17.6693 5.6121 17.4217 5.62499 17.167 5.625H2.83301C2.57829 5.62499 2.3307 5.6121 2.10938 5.56348C1.88107 5.51327 1.64242 5.41675 1.44629 5.2207C1.25001 5.02442 1.15274 4.78514 1.10254 4.55664C1.05396 4.33531 1.04199 4.08771 1.04199 3.83301V2.83301C1.042 2.57829 1.05392 2.3307 1.10254 2.10938C1.15275 1.88097 1.25009 1.64249 1.44629 1.44629C1.64249 1.25009 1.88097 1.15275 2.10938 1.10254C2.3307 1.05392 2.57829 1.042 2.83301 1.04199H17.167Z" fill="#999FAB" fill-opacity="0.7"/>
</svg>
