<svg width="24" height="24" viewBox="0 0 24 24" fill="none" xmlns="http://www.w3.org/2000/svg">
<path d="M18.2695 17.7422C18.5501 17.2666 19.163 17.1083 19.6387 17.3887C20.2579 17.754 21 18.3846 21 19.3428C20.9999 20.1584 20.4548 20.7364 19.9512 21.0947C19.4221 21.4712 18.7213 21.7694 17.9453 22.0029C16.3806 22.4738 14.2787 22.75 12 22.75C9.72135 22.75 7.61943 22.4738 6.05469 22.0029C5.27874 21.7694 4.57792 21.4712 4.04883 21.0947C3.5452 20.7364 3.00012 20.1584 3 19.3428C3 18.3846 3.7421 17.754 4.36133 17.3887C4.83696 17.1083 5.44989 17.2666 5.73047 17.7422C6.01092 18.2178 5.85255 18.8307 5.37695 19.1113C5.22045 19.2037 5.11949 19.2834 5.05762 19.3428C5.09127 19.3748 5.13928 19.4159 5.20801 19.4648C5.48845 19.6644 5.95946 19.8848 6.63086 20.0869C7.96154 20.4874 9.86037 20.75 12 20.75C14.1396 20.75 16.0385 20.4874 17.3691 20.0869C18.0405 19.8848 18.5116 19.6644 18.792 19.4648C18.8607 19.4159 18.9087 19.3748 18.9424 19.3428C18.8805 19.2834 18.7795 19.2037 18.623 19.1113C18.1474 18.8307 17.9891 18.2178 18.2695 17.7422ZM12 1.25C16.4778 1.25 20.25 5.01859 20.25 9.58691C20.25 14.2513 16.402 17.4123 13.1699 19.4297L13.1465 19.4434C12.7977 19.6441 12.4025 19.75 12 19.75C11.5975 19.75 11.2023 19.6441 10.8535 19.4434L10.8398 19.4355L10.8271 19.4277C7.6076 17.3948 3.75001 14.2671 3.75 9.58691C3.75 5.01859 7.52225 1.25 12 1.25ZM12 6C10.067 6 8.5 7.567 8.5 9.5C8.5 11.433 10.067 13 12 13C13.933 13 15.5 11.433 15.5 9.5C15.5 7.567 13.933 6 12 6Z" fill="#686E7E"/>
</svg>
