<svg width="121" height="32" viewBox="0 0 121 32" fill="none" xmlns="http://www.w3.org/2000/svg">
<g clip-path="url(#clip0_15142_454)">
<mask id="mask0_15142_454" style="mask-type:luminance" maskUnits="userSpaceOnUse" x="0" y="0" width="121" height="32">
<path d="M120.043 0H0V32H120.043V0Z" fill="white"/>
</mask>
<g mask="url(#mask0_15142_454)">
<path d="M0.0118289 12.8285C0.0118289 12.5563 -0.0117737 12.2249 0.0118289 11.8936C0.106239 10.9231 0.236053 9.96457 0.531086 9.02966C0.802516 8.15392 1.14475 7.32552 1.605 6.52079C2.5609 4.81664 3.92985 3.52671 5.60564 2.56812C6.45533 2.08292 7.36403 1.71605 8.29633 1.45569C8.72117 1.33735 9.16963 1.27818 9.59447 1.19534C10.7392 0.970489 11.8839 0.970489 13.0286 1.02966C13.6541 1.06516 14.2796 1.15984 14.905 1.30185C15.4598 1.43203 16.0144 1.58587 16.5573 1.77523C17.7727 2.21309 18.8821 2.82848 19.8852 3.65688C20.4988 4.16575 21.0653 4.72196 21.5491 5.34919C22.1157 6.09475 22.5759 6.89948 22.9417 7.77521C23.1305 8.23676 23.3312 8.68647 23.4492 9.15984C23.5553 9.5622 23.638 9.9764 23.7206 10.3788C23.8859 11.3255 23.9448 12.2723 23.9331 13.2308C23.9213 14.0355 23.8387 14.8403 23.6734 15.6331C23.4609 16.6865 23.1188 17.7042 22.6349 18.6865C21.9858 20.0001 21.1243 21.1479 20.0268 22.1183C19.3069 22.7574 18.4926 23.2899 17.6311 23.7161C16.9703 24.0474 16.2741 24.3195 15.5542 24.5089C15.141 24.6154 14.7044 24.6983 14.2796 24.7811C13.1703 24.9942 12.0609 25.0059 10.9516 24.9586C10.3143 24.9231 9.67707 24.8166 9.05161 24.6746C8.39074 24.5326 7.74167 24.3314 7.11621 24.0829C5.98328 23.6331 4.94476 23.0178 4.00066 22.2249C3.13916 21.503 2.41929 20.6627 1.82923 19.7161C1.45159 19.0889 1.10935 18.4379 0.84972 17.7397C0.660899 17.2309 0.495682 16.7219 0.354066 16.2013C0.236053 15.7278 0.153445 15.2426 0.0826366 14.7574C0.0236301 14.1421 -0.0235749 13.5149 0.0118289 12.8285ZM11.8013 5.96457C11.046 5.95273 10.1845 6.14208 9.34665 6.53262C8.46154 6.93499 7.74167 7.52669 7.13981 8.26043C6.31371 9.29002 5.90066 10.4853 5.73545 11.7989C5.57024 13.1362 5.70004 14.4498 6.11309 15.7161C6.37272 16.5207 6.78577 17.2782 7.35222 17.9173C8.15472 18.8403 9.13422 19.4794 10.3379 19.787C11.2231 20.0119 12.1199 20.0593 13.0168 19.9054C13.7485 19.787 14.433 19.5622 15.0585 19.1598C16.156 18.4615 16.9821 17.5503 17.5249 16.3551C17.9852 15.3729 18.1622 14.3314 18.2448 13.2663C18.2803 12.864 18.2094 12.4616 18.1859 12.0592C18.1268 11.219 17.9026 10.4379 17.5839 9.66871C17.2417 8.85215 16.7343 8.13026 16.0734 7.53854C14.9287 6.48528 13.5478 5.95273 11.8013 5.96457Z" fill="#0B7BE3"/>
<path d="M81.1104 16.3433C81.1104 18.793 81.1222 21.2546 81.0985 23.7042C81.0985 24.3552 80.9569 24.9942 80.8271 25.6333C80.65 26.4736 80.3314 27.2546 79.9184 27.9883C79.4699 28.7812 78.9035 29.444 78.1836 30.0238C77.3929 30.6629 76.5078 31.1007 75.5638 31.4202C75.0681 31.586 74.5488 31.6806 74.0296 31.7872C72.873 32.0238 71.7047 32.0238 70.5364 31.9646C69.9581 31.941 69.3917 31.8581 68.8251 31.7517C68.2233 31.6452 67.6215 31.5149 67.0432 31.3256C65.7923 30.935 64.5885 30.4262 63.5146 29.6569C63.3613 29.5505 63.314 29.4794 63.4557 29.2901C64.0928 28.4262 64.6948 27.5386 65.3084 26.6748C65.4854 26.4262 65.6624 26.1777 65.8513 25.9292C65.9339 25.8108 66.0165 25.7872 66.1462 25.9054C66.8072 26.4972 67.5742 26.9232 68.4003 27.2309C69.545 27.6569 70.7369 27.87 71.9525 27.7634C73.0972 27.6688 74.1475 27.3374 74.9146 26.4025C75.3041 25.9292 75.5638 25.3966 75.7171 24.793C75.8942 24.0948 75.9177 23.3966 75.906 22.6865C75.906 22.6037 75.9649 22.4735 75.847 22.4262C75.7289 22.3789 75.6935 22.509 75.6345 22.5801C75.0681 23.219 74.3719 23.6688 73.5811 24.0001C72.4836 24.4498 71.3624 24.5209 70.206 24.4617C68.7426 24.3789 67.4444 23.9054 66.2643 23.0415C65.0724 22.1777 64.2816 21.018 63.7506 19.6688C63.5029 19.0534 63.3848 18.4025 63.2785 17.7398C63.1723 17.0653 63.1723 16.3906 63.196 15.7161C63.2078 15.1008 63.3494 14.4972 63.491 13.8937C63.6445 13.2427 63.8805 12.6274 64.1754 12.0238C64.8127 10.7457 65.7451 9.73978 66.9724 9.04155C67.6215 8.67468 68.3059 8.36699 69.0494 8.20131C69.9226 8.00014 70.796 7.95279 71.6693 8.03563C72.7786 8.14214 73.8289 8.49718 74.7612 9.13623C75.2097 9.44392 75.5638 9.84628 75.8942 10.2723C75.9414 10.3315 75.9768 10.4262 76.0712 10.3788C76.1537 10.3433 76.1065 10.2605 76.1065 10.1895C76.1065 9.6806 76.1184 9.1599 76.1065 8.65102C76.1065 8.47351 76.1656 8.42616 76.3309 8.42616C77.8532 8.42616 79.3874 8.438 80.9097 8.42616C81.1222 8.42616 81.1222 8.53267 81.1222 8.68652C81.1222 11.2427 81.1222 13.7872 81.1104 16.3433C81.1222 16.3433 81.1222 16.3433 81.1104 16.3433ZM72.2239 20.3433C72.6489 20.4025 73.1681 20.296 73.652 20.0948C74.9618 19.5268 75.7526 18.4972 76.0004 17.1126C76.2128 15.9054 75.9768 14.7576 75.2215 13.7516C74.6668 13.0179 73.9234 12.5564 73.0265 12.367C72.5308 12.2723 72.0234 12.2487 71.504 12.3315C71.0675 12.4025 70.6544 12.5327 70.2649 12.7457C69.1911 13.3256 68.6363 14.2842 68.424 15.4321C68.2469 16.3789 68.3177 17.3374 68.7544 18.2132C69.4271 19.5741 70.5128 20.367 72.2239 20.3433Z" fill="#2A2C33"/>
<path d="M108.997 10.5919C109.28 10.2487 109.504 9.89372 109.823 9.62154C110.495 9.04166 111.227 8.58011 112.077 8.31976C113.056 8.01207 114.048 8.03574 115.027 8.15408C116.314 8.30792 117.458 8.87598 118.343 9.85822C119.016 10.6038 119.464 11.4795 119.712 12.4618C119.96 13.4086 120.031 14.3552 120.031 15.3256C120.019 18.4499 120.019 21.5742 120.031 24.6984C120.031 24.9351 119.972 24.9943 119.736 24.9943C118.072 24.9824 116.42 24.9824 114.756 24.9943C114.496 24.9943 114.449 24.9115 114.449 24.663C114.461 21.8464 114.461 19.018 114.449 16.2014C114.449 15.586 114.437 14.9707 114.26 14.3671C114.024 13.5623 113.576 12.9115 112.738 12.6748C112.348 12.5683 111.935 12.5209 111.499 12.6038C111.038 12.6985 110.613 12.805 110.248 13.089C109.551 13.6452 109.197 14.379 109.032 15.2428C108.902 15.8819 108.95 16.521 108.95 17.16C108.938 19.6688 108.938 22.1778 108.95 24.6748C108.95 24.8996 108.902 24.9707 108.666 24.9707C107.002 24.9588 105.326 24.9588 103.663 24.9707C103.462 24.9707 103.403 24.9234 103.403 24.7103C103.403 16.5446 103.403 8.37892 103.403 0.225083C103.403 0.0357341 103.438 -0.0234375 103.639 -0.0234375C105.326 -0.0116032 107.002 -0.0116032 108.69 -0.0234375C108.902 -0.0234375 108.95 0.0475684 108.938 0.248752C108.938 3.57419 108.938 6.89964 108.938 10.2251C108.95 10.3434 108.926 10.4499 108.997 10.5919Z" fill="#2A2C33"/>
<path d="M61.8504 8.00028C61.6262 8.60383 61.4137 9.17188 61.1896 9.72809C60.8238 10.6867 60.4578 11.6453 60.0921 12.6038C59.7852 13.3849 59.4902 14.1778 59.1952 14.9706C58.912 15.74 58.5932 16.5092 58.3219 17.2784C58.0268 18.1305 57.6727 18.9589 57.3895 19.8109C57.1418 20.5328 56.8112 21.231 56.5635 21.9529C56.3038 22.7104 55.9971 23.4322 55.7374 24.1896C55.5249 24.805 55.2772 25.4204 55.041 26.024C54.7343 26.8524 54.392 27.6689 53.979 28.45C53.2473 29.8228 52.256 30.9233 50.7926 31.515C50.0727 31.8109 49.3175 31.9412 48.5385 31.9648C47.7007 32.0002 46.8746 32.0002 46.0485 31.8346C45.7771 31.7754 45.4939 31.7873 45.2225 31.657C45.1281 31.6097 45.1044 31.5624 45.1044 31.4677C45.1162 30.876 45.2106 30.2842 45.3051 29.7044C45.3523 29.4204 45.3758 29.1245 45.3995 28.8286C45.4348 28.4026 45.5411 27.9766 45.5529 27.5388C45.5646 27.1718 45.7064 27.1128 46.0603 27.2074C46.6858 27.373 47.3113 27.4441 47.9839 27.3257C48.9989 27.1482 49.4119 26.4264 49.7777 25.6097C50.0138 25.1009 50.1671 24.5565 50.4031 24.0476C50.4386 23.9648 50.4503 23.8701 50.415 23.799C50.2143 23.3138 50.0138 22.8405 49.8132 22.3553C49.5063 21.6097 49.1877 20.8642 48.8808 20.1186C48.5622 19.3376 48.2318 18.5684 47.9249 17.7873C47.6535 17.089 47.3348 16.4145 47.0871 15.7044C46.8864 15.1364 46.615 14.592 46.3907 14.0358C46.0368 13.1719 45.6827 12.308 45.3286 11.4441C44.9865 10.6038 44.6205 9.77543 44.2783 8.92336C44.1722 8.65117 44.0659 8.37897 43.9479 8.11863C43.9007 8.01212 43.9479 7.97661 44.0541 7.97661C44.1013 7.97661 44.1367 7.97661 44.1839 7.97661C45.9305 7.97661 47.6771 7.97661 49.4237 7.97661C49.5535 7.97661 49.6361 7.98845 49.6951 8.15413C49.8839 8.65117 50.0374 9.16004 50.2262 9.65708C50.4858 10.379 50.7219 11.1127 50.9697 11.8346C51.2057 12.521 51.4181 13.2074 51.6541 13.8937C51.8312 14.4145 52.0436 14.9352 52.197 15.4677C52.3976 16.2014 52.6927 16.8997 52.9051 17.6334C52.9641 17.8228 53.0348 18.0002 53.1057 18.1778C53.1292 18.2252 53.0939 18.3198 53.1883 18.2961C53.2473 18.2842 53.2945 18.2488 53.3063 18.1778C53.4598 17.6216 53.6131 17.0653 53.7784 16.5092C53.9672 15.8582 54.1914 15.2074 54.3685 14.5565C54.4983 14.0949 54.6634 13.657 54.7815 13.1837C54.9466 12.5092 55.2063 11.8701 55.3833 11.1955C55.5014 10.7577 55.6548 10.3198 55.7609 9.88193C55.9025 9.33756 56.1387 8.81685 56.2566 8.26064C56.3275 7.91744 56.5163 7.95295 56.7523 7.95295C58.3337 7.95295 59.9151 7.95295 61.4965 7.95295C61.6026 8.00028 61.7088 8.00028 61.8504 8.00028Z" fill="#2A2C33"/>
<path d="M100.748 16.4855C100.807 17.1836 100.689 17.9411 100.512 18.663C100.099 20.3316 99.2843 21.7754 97.9743 22.9115C97.1009 23.6688 96.1097 24.2014 95.0003 24.5683C93.7849 24.9707 92.5339 25.0772 91.283 24.947C90.1264 24.8287 89.0289 24.4855 87.9904 23.9174C86.9046 23.3256 86.0078 22.5446 85.3115 21.5387C84.8984 20.9351 84.568 20.2962 84.3201 19.5979C83.8481 18.3198 83.7183 17.0062 83.8009 15.6688C83.8481 14.9588 83.9897 14.2606 84.2139 13.5624C84.627 12.3079 85.2643 11.2074 86.1966 10.2843C86.8457 9.64522 87.601 9.14818 88.4388 8.76947C88.9463 8.54462 89.4537 8.34344 89.9848 8.2251C90.3034 8.15408 90.6457 8.11859 90.9761 8.05942C91.5897 7.94107 92.2035 7.97658 92.8171 7.9884C93.4426 8.00024 94.0444 8.13042 94.6581 8.28427C95.909 8.59196 97.0184 9.17184 97.9979 9.9884C98.6588 10.5446 99.2016 11.2192 99.6382 11.9766C100.075 12.734 100.382 13.5387 100.559 14.4026C100.689 15.089 100.771 15.7518 100.748 16.4855ZM95.8737 16.4144C95.8855 15.9411 95.8146 15.4678 95.673 14.9943C95.4724 14.3435 95.1301 13.7872 94.6464 13.3139C94.1388 12.8168 93.5487 12.5328 92.8288 12.4026C92.0618 12.2606 91.342 12.3671 90.6929 12.6985C89.4184 13.3612 88.8283 14.521 88.6866 15.9174C88.5922 16.9115 88.7457 17.87 89.2413 18.7576C89.7842 19.728 90.5985 20.3552 91.6841 20.521C92.3096 20.6156 92.9469 20.5919 93.5606 20.3435C94.2451 20.0712 94.788 19.6215 95.1656 19.018C95.6612 18.237 95.909 17.373 95.8737 16.4144Z" fill="#2A2C33"/>
<path d="M27.2608 12.9944C27.2608 9.1009 27.2608 5.19556 27.2608 1.30208C27.2608 1.06539 27.308 0.994385 27.5559 0.994385C29.0429 1.00622 30.5298 1.00622 32.005 0.994385C32.1938 0.994385 32.2528 1.02989 32.2528 1.23107C32.2528 9.06539 32.2528 16.9116 32.2528 24.7458C32.2528 24.947 32.1821 24.9825 32.005 24.9825C30.5063 24.9708 29.0193 24.9708 27.5205 24.9825C27.2963 24.9825 27.2491 24.9116 27.2491 24.6985C27.2608 20.805 27.2608 16.8997 27.2608 12.9944Z" fill="#2A2C33"/>
<path d="M36.2418 16.4972C36.2418 13.7635 36.2418 11.0297 36.2418 8.30785C36.2418 8.07115 36.3009 8.00015 36.5369 8.01198C38.0003 8.02382 39.4754 8.02382 40.9387 8.01198C41.1629 8.01198 41.2338 8.04749 41.2338 8.29601C41.222 13.7752 41.222 19.2546 41.2338 24.7339C41.2338 24.9468 41.1866 25.0179 40.9624 25.006C39.4871 24.9942 38.012 24.9942 36.5369 25.006C36.3127 25.006 36.2418 24.9587 36.2418 24.722C36.2537 21.9764 36.2418 19.231 36.2418 16.4972Z" fill="#2A2C33"/>
<path d="M41.2218 3.52678C41.2572 4.88772 40.0416 6.02382 38.7199 6.00015C37.4336 5.98831 36.2298 4.89956 36.2417 3.4676C36.2534 2.15399 37.3627 0.982395 38.7671 0.99423C40.0888 0.99423 41.2808 2.17766 41.2218 3.52678Z" fill="#2A2C33"/>
<path d="M11.9428 16.0001C10.3379 16.0237 8.94532 14.6154 8.96892 12.9705C8.99253 11.4083 10.3025 9.97638 12.0136 10C13.5242 10.0237 14.9875 11.3255 14.964 13.0533C14.9521 14.6036 13.6068 16.0474 11.9428 16.0001Z" fill="#E84E0F"/>
</g>
</g>
<defs>
<clipPath id="clip0_15142_454">
<rect width="121" height="32" fill="white"/>
</clipPath>
</defs>
</svg>
