<svg width="121" height="32" viewBox="0 0 121 32" fill="none" xmlns="http://www.w3.org/2000/svg">
<g clip-path="url(#clip0_15197_785)">
<mask id="mask0_15197_785" style="mask-type:luminance" maskUnits="userSpaceOnUse" x="0" y="0" width="121" height="32">
<path d="M120.043 0H0V32H120.043V0Z" fill="white"/>
</mask>
<g mask="url(#mask0_15197_785)">
<path d="M0.0118289 12.8287C0.0118289 12.5565 -0.0117737 12.2252 0.0118289 11.8938C0.106239 10.9234 0.236053 9.96482 0.531086 9.0299C0.802516 8.15417 1.14475 7.32577 1.605 6.52103C2.5609 4.81689 3.92985 3.52695 5.60564 2.56837C6.45533 2.08317 7.36403 1.7163 8.29633 1.45594C8.72117 1.33759 9.16963 1.27843 9.59447 1.19559C10.7392 0.970733 11.8839 0.970733 13.0286 1.0299C13.6541 1.06541 14.2796 1.16008 14.905 1.30209C15.4598 1.43227 16.0144 1.58611 16.5573 1.77547C17.7727 2.21334 18.8821 2.82873 19.8852 3.65713C20.4988 4.16599 21.0653 4.72221 21.5491 5.34943C22.1157 6.09499 22.5759 6.89973 22.9417 7.77546C23.1305 8.23701 23.3312 8.68671 23.4492 9.16009C23.5553 9.56245 23.638 9.97665 23.7206 10.379C23.8859 11.3258 23.9448 12.2725 23.9331 13.2311C23.9213 14.0358 23.8387 14.8406 23.6734 15.6334C23.4609 16.6867 23.1188 17.7045 22.6349 18.6867C21.9858 20.0003 21.1243 21.1482 20.0268 22.1186C19.3069 22.7577 18.4926 23.2902 17.6311 23.7163C16.9703 24.0477 16.2741 24.3198 15.5542 24.5091C15.141 24.6157 14.7044 24.6986 14.2796 24.7814C13.1703 24.9945 12.0609 25.0062 10.9516 24.9589C10.3143 24.9234 9.67707 24.8169 9.05161 24.6749C8.39074 24.5329 7.74167 24.3317 7.11621 24.0831C5.98328 23.6334 4.94476 23.0181 4.00066 22.2251C3.13916 21.5033 2.41929 20.663 1.82923 19.7163C1.45159 19.0891 1.10935 18.4382 0.84972 17.7399C0.660899 17.2311 0.495682 16.7222 0.354066 16.2015C0.236053 15.7281 0.153445 15.2429 0.0826366 14.7577C0.0236301 14.1423 -0.0235749 13.5151 0.0118289 12.8287ZM11.8013 5.96482C11.046 5.95298 10.1845 6.14233 9.34665 6.53286C8.46154 6.93523 7.74167 7.52694 7.13981 8.26067C6.31371 9.29026 5.90066 10.4855 5.73545 11.7991C5.57024 13.1364 5.70004 14.4501 6.11309 15.7163C6.37272 16.521 6.78577 17.2785 7.35222 17.9175C8.15472 18.8406 9.13422 19.4797 10.3379 19.7873C11.2231 20.0122 12.1199 20.0595 13.0168 19.9057C13.7485 19.7873 14.433 19.5625 15.0585 19.1601C16.156 18.4618 16.9821 17.5506 17.5249 16.3554C17.9852 15.3731 18.1622 14.3317 18.2448 13.2666C18.2803 12.8642 18.2094 12.4619 18.1859 12.0595C18.1268 11.2192 17.9026 10.4382 17.5839 9.66895C17.2417 8.85239 16.7343 8.1305 16.0734 7.53878C14.9287 6.48553 13.5478 5.95298 11.8013 5.96482Z" fill="#0B7BE3"/>
<path d="M81.1104 16.343C81.1104 18.7928 81.1222 21.2544 81.0985 23.704C81.0985 24.3549 80.9569 24.994 80.8271 25.633C80.65 26.4733 80.3314 27.2544 79.9184 27.9881C79.4699 28.7809 78.9035 29.4437 78.1836 30.0236C77.3929 30.6626 76.5078 31.1005 75.5638 31.42C75.0681 31.5857 74.5488 31.6804 74.0296 31.7869C72.873 32.0236 71.7047 32.0236 70.5364 31.9644C69.9581 31.9408 69.3917 31.8578 68.8251 31.7514C68.2233 31.6449 67.6215 31.5146 67.0432 31.3253C65.7923 30.9348 64.5885 30.426 63.5146 29.6566C63.3613 29.5502 63.314 29.4792 63.4557 29.2898C64.0928 28.426 64.6948 27.5384 65.3084 26.6745C65.4854 26.426 65.6624 26.1774 65.8513 25.9289C65.9339 25.8105 66.0165 25.7869 66.1462 25.9052C66.8072 26.4969 67.5742 26.9229 68.4003 27.2306C69.545 27.6566 70.7369 27.8697 71.9525 27.7632C73.0972 27.6685 74.1475 27.3372 74.9146 26.4022C75.3041 25.9289 75.5638 25.3964 75.7171 24.7928C75.8942 24.0945 75.9177 23.3964 75.906 22.6862C75.906 22.6034 75.9649 22.4733 75.847 22.426C75.7289 22.3786 75.6935 22.5088 75.6345 22.5798C75.0681 23.2188 74.3719 23.6685 73.5811 23.9998C72.4836 24.4496 71.3624 24.5206 70.206 24.4614C68.7426 24.3786 67.4444 23.9052 66.2643 23.0413C65.0724 22.1774 64.2816 21.0177 63.7506 19.6685C63.5029 19.0532 63.3848 18.4022 63.2785 17.7396C63.1723 17.065 63.1723 16.3904 63.196 15.7158C63.2078 15.1005 63.3494 14.4969 63.491 13.8934C63.6445 13.2425 63.8805 12.6271 64.1754 12.0236C64.8127 10.7455 65.7451 9.73953 66.9724 9.04131C67.6215 8.67444 68.3059 8.36675 69.0494 8.20107C69.9226 7.99989 70.796 7.95255 71.6693 8.03539C72.7786 8.14189 73.8289 8.49693 74.7612 9.13599C75.2097 9.44368 75.5638 9.84604 75.8942 10.2721C75.9414 10.3313 75.9768 10.4259 76.0712 10.3786C76.1537 10.3431 76.1065 10.2602 76.1065 10.1892C76.1065 9.68036 76.1184 9.15965 76.1065 8.65077C76.1065 8.47327 76.1656 8.42592 76.3309 8.42592C77.8532 8.42592 79.3874 8.43776 80.9097 8.42592C81.1222 8.42592 81.1222 8.53243 81.1222 8.68628C81.1222 11.2425 81.1222 13.7869 81.1104 16.343C81.1222 16.343 81.1222 16.343 81.1104 16.343ZM72.2239 20.343C72.6489 20.4022 73.1681 20.2957 73.652 20.0945C74.9618 19.5265 75.7526 18.4969 76.0004 17.1124C76.2128 15.9052 75.9768 14.7573 75.2215 13.7513C74.6668 13.0176 73.9234 12.5561 73.0265 12.3667C72.5308 12.2721 72.0234 12.2484 71.504 12.3313C71.0675 12.4023 70.6544 12.5324 70.2649 12.7455C69.1911 13.3253 68.6363 14.284 68.424 15.4318C68.2469 16.3786 68.3177 17.3372 68.7544 18.2129C69.4271 19.5738 70.5128 20.3668 72.2239 20.343Z" fill="white" fill-opacity="0.9"/>
<path d="M108.997 10.5919C109.28 10.2487 109.504 9.89372 109.823 9.62154C110.495 9.04166 111.227 8.58011 112.077 8.31976C113.056 8.01207 114.048 8.03574 115.027 8.15408C116.314 8.30792 117.458 8.87598 118.343 9.85822C119.016 10.6038 119.464 11.4795 119.712 12.4618C119.96 13.4086 120.031 14.3552 120.031 15.3256C120.019 18.4499 120.019 21.5742 120.031 24.6984C120.031 24.9351 119.972 24.9943 119.736 24.9943C118.072 24.9824 116.42 24.9824 114.756 24.9943C114.496 24.9943 114.449 24.9115 114.449 24.663C114.461 21.8464 114.461 19.018 114.449 16.2014C114.449 15.586 114.437 14.9707 114.26 14.3671C114.024 13.5623 113.576 12.9115 112.738 12.6748C112.348 12.5683 111.935 12.5209 111.499 12.6038C111.038 12.6985 110.613 12.805 110.248 13.089C109.551 13.6452 109.197 14.379 109.032 15.2428C108.902 15.8819 108.95 16.521 108.95 17.16C108.938 19.6688 108.938 22.1778 108.95 24.6748C108.95 24.8996 108.902 24.9707 108.666 24.9707C107.002 24.9588 105.326 24.9588 103.663 24.9707C103.462 24.9707 103.403 24.9234 103.403 24.7103C103.403 16.5446 103.403 8.37892 103.403 0.225083C103.403 0.0357341 103.438 -0.0234375 103.639 -0.0234375C105.326 -0.0116032 107.002 -0.0116032 108.69 -0.0234375C108.902 -0.0234375 108.95 0.0475684 108.938 0.248752C108.938 3.57419 108.938 6.89964 108.938 10.2251C108.95 10.3434 108.926 10.4499 108.997 10.5919Z" fill="white" fill-opacity="0.9"/>
<path d="M61.8504 8.00004C61.6262 8.60358 61.4137 9.17164 61.1896 9.72785C60.8238 10.6864 60.4578 11.645 60.0921 12.6036C59.7852 13.3847 59.4902 14.1776 59.1952 14.9704C58.912 15.7397 58.5932 16.5089 58.3219 17.2781C58.0268 18.1303 57.6727 18.9587 57.3895 19.8107C57.1418 20.5325 56.8112 21.2308 56.5635 21.9527C56.3038 22.7101 55.9971 23.432 55.7374 24.1893C55.5249 24.8048 55.2772 25.4201 55.041 26.0237C54.7343 26.8521 54.392 27.6687 53.979 28.4497C53.2473 29.8225 52.256 30.9231 50.7926 31.5148C50.0727 31.8107 49.3175 31.9409 48.5385 31.9645C47.7007 32 46.8746 32 46.0485 31.8344C45.7771 31.7752 45.4939 31.7871 45.2225 31.6568C45.1281 31.6095 45.1044 31.5621 45.1044 31.4675C45.1162 30.8757 45.2106 30.284 45.3051 29.7041C45.3523 29.4201 45.3758 29.1243 45.3995 28.8284C45.4348 28.4024 45.5411 27.9764 45.5529 27.5385C45.5646 27.1716 45.7064 27.1125 46.0603 27.2072C46.6858 27.3728 47.3113 27.4439 47.9839 27.3255C48.9989 27.148 49.4119 26.4261 49.7777 25.6095C50.0138 25.1007 50.1671 24.5563 50.4031 24.0473C50.4386 23.9645 50.4503 23.8699 50.415 23.7988C50.2143 23.3136 50.0138 22.8403 49.8132 22.3551C49.5063 21.6095 49.1877 20.864 48.8808 20.1184C48.5622 19.3373 48.2318 18.5681 47.9249 17.7871C47.6535 17.0888 47.3348 16.4143 47.0871 15.7041C46.8864 15.1361 46.615 14.5917 46.3907 14.0356C46.0368 13.1716 45.6827 12.3077 45.3286 11.4438C44.9865 10.6036 44.6205 9.77518 44.2783 8.92312C44.1722 8.65093 44.0659 8.37873 43.9479 8.11838C43.9007 8.01188 43.9479 7.97637 44.0541 7.97637C44.1013 7.97637 44.1367 7.97637 44.1839 7.97637C45.9305 7.97637 47.6771 7.97637 49.4237 7.97637C49.5535 7.97637 49.6361 7.98821 49.6951 8.15389C49.8839 8.65093 50.0374 9.1598 50.2262 9.65684C50.4858 10.3787 50.7219 11.1125 50.9697 11.8344C51.2057 12.5207 51.4181 13.2071 51.6541 13.8935C51.8312 14.4143 52.0436 14.9349 52.197 15.4675C52.3976 16.2012 52.6927 16.8995 52.9051 17.6332C52.9641 17.8225 53.0348 18 53.1057 18.1776C53.1292 18.2249 53.0939 18.3196 53.1883 18.2959C53.2473 18.284 53.2945 18.2485 53.3063 18.1776C53.4598 17.6213 53.6131 17.0651 53.7784 16.5089C53.9672 15.858 54.1914 15.2072 54.3685 14.5563C54.4983 14.0947 54.6634 13.6568 54.7815 13.1835C54.9466 12.5089 55.2063 11.8699 55.3833 11.1953C55.5014 10.7574 55.6548 10.3196 55.7609 9.88169C55.9025 9.33732 56.1387 8.81661 56.2566 8.2604C56.3275 7.9172 56.5163 7.9527 56.7523 7.9527C58.3337 7.9527 59.9151 7.9527 61.4965 7.9527C61.6026 8.00004 61.7088 8.00004 61.8504 8.00004Z" fill="white" fill-opacity="0.9"/>
<path d="M100.748 16.4855C100.807 17.1836 100.689 17.9411 100.512 18.663C100.099 20.3316 99.2843 21.7754 97.9743 22.9115C97.1009 23.6688 96.1097 24.2014 95.0003 24.5683C93.7849 24.9707 92.5339 25.0772 91.283 24.947C90.1264 24.8287 89.0289 24.4855 87.9904 23.9174C86.9046 23.3256 86.0078 22.5446 85.3115 21.5387C84.8984 20.9351 84.568 20.2962 84.3201 19.5979C83.8481 18.3198 83.7183 17.0062 83.8009 15.6688C83.8481 14.9588 83.9897 14.2606 84.2139 13.5624C84.627 12.3079 85.2643 11.2074 86.1966 10.2843C86.8457 9.64522 87.601 9.14818 88.4388 8.76947C88.9463 8.54462 89.4537 8.34344 89.9848 8.2251C90.3034 8.15408 90.6457 8.11859 90.9761 8.05942C91.5897 7.94107 92.2035 7.97658 92.8171 7.9884C93.4426 8.00024 94.0444 8.13042 94.6581 8.28427C95.909 8.59196 97.0184 9.17184 97.9979 9.9884C98.6588 10.5446 99.2016 11.2192 99.6382 11.9766C100.075 12.734 100.382 13.5387 100.559 14.4026C100.689 15.089 100.771 15.7518 100.748 16.4855ZM95.8737 16.4144C95.8855 15.9411 95.8146 15.4678 95.673 14.9943C95.4724 14.3435 95.1301 13.7872 94.6464 13.3139C94.1388 12.8168 93.5487 12.5328 92.8288 12.4026C92.0618 12.2606 91.342 12.3671 90.6929 12.6985C89.4184 13.3612 88.8283 14.521 88.6866 15.9174C88.5922 16.9115 88.7457 17.87 89.2413 18.7576C89.7842 19.728 90.5985 20.3552 91.6841 20.521C92.3096 20.6156 92.9469 20.5919 93.5606 20.3435C94.2451 20.0712 94.788 19.6215 95.1656 19.018C95.6612 18.237 95.909 17.373 95.8737 16.4144Z" fill="white" fill-opacity="0.9"/>
<path d="M27.2608 12.9941C27.2608 9.10066 27.2608 5.19532 27.2608 1.30183C27.2608 1.06515 27.308 0.994141 27.5559 0.994141C29.0429 1.00598 30.5298 1.00598 32.005 0.994141C32.1938 0.994141 32.2528 1.02964 32.2528 1.23083C32.2528 9.06515 32.2528 16.9113 32.2528 24.7456C32.2528 24.9468 32.1821 24.9823 32.005 24.9823C30.5063 24.9705 29.0193 24.9705 27.5205 24.9823C27.2963 24.9823 27.2491 24.9113 27.2491 24.6983C27.2608 20.8048 27.2608 16.8995 27.2608 12.9941Z" fill="white" fill-opacity="0.9"/>
<path d="M36.2418 16.4972C36.2418 13.7635 36.2418 11.0297 36.2418 8.30785C36.2418 8.07115 36.3009 8.00015 36.5369 8.01198C38.0003 8.02382 39.4754 8.02382 40.9387 8.01198C41.1629 8.01198 41.2338 8.04749 41.2338 8.29601C41.222 13.7752 41.222 19.2546 41.2338 24.7339C41.2338 24.9468 41.1866 25.0179 40.9624 25.006C39.4871 24.9942 38.012 24.9942 36.5369 25.006C36.3127 25.006 36.2418 24.9587 36.2418 24.722C36.2537 21.9764 36.2418 19.231 36.2418 16.4972Z" fill="white" fill-opacity="0.9"/>
<path d="M41.2218 3.52678C41.2572 4.88772 40.0416 6.02382 38.7199 6.00015C37.4336 5.98831 36.2298 4.89956 36.2417 3.4676C36.2534 2.15399 37.3627 0.982395 38.7671 0.99423C40.0888 0.99423 41.2808 2.17766 41.2218 3.52678Z" fill="white" fill-opacity="0.9"/>
<path d="M11.9428 16.0003C10.3379 16.0239 8.94532 14.6157 8.96892 12.9707C8.99253 11.4086 10.3025 9.97662 12.0136 10.0003C13.5242 10.024 14.9875 11.3257 14.964 13.0536C14.9521 14.6038 13.6068 16.0477 11.9428 16.0003Z" fill="#E84E0F"/>
</g>
</g>
<defs>
<clipPath id="clip0_15197_785">
<rect width="121" height="32" fill="white"/>
</clipPath>
</defs>
</svg>
