<svg width="20" height="20" viewBox="0 0 20 20" fill="none" xmlns="http://www.w3.org/2000/svg">
<path d="M8.26465 1.71436C8.69857 1.56138 9.17401 1.78924 9.32715 2.22314C9.48015 2.65696 9.25302 3.13234 8.81934 3.28564L8.2666 3.48096C7.17463 3.86636 6.42101 4.13332 5.85938 4.40576C5.31672 4.66904 5.02955 4.90279 4.83398 5.1792C4.63846 5.45556 4.51396 5.80371 4.44629 6.40283C4.37625 7.02323 4.375 7.82355 4.375 8.98193V11.019C4.375 12.1772 4.37626 12.9768 4.44629 13.5972C4.51393 14.1963 4.63851 14.5444 4.83398 14.8208C5.02955 15.0972 5.31672 15.331 5.85938 15.5942C6.421 15.8667 7.17461 16.1336 8.2666 16.519L8.81934 16.7144C9.25315 16.8676 9.48029 17.3439 9.32715 17.7778C9.17385 18.2115 8.69847 18.4386 8.26465 18.2856L7.66699 18.0747C6.63126 17.7092 5.78805 17.4116 5.13184 17.0933C4.44698 16.761 3.89026 16.3725 3.47363 15.7837C3.057 15.1948 2.87543 14.5401 2.79004 13.7837C2.70827 13.059 2.70799 12.165 2.70801 11.0669V8.93311C2.70799 7.83487 2.70823 6.94102 2.79004 6.21631C2.87543 5.45988 3.057 4.80518 3.47363 4.21631C3.89025 3.6276 4.44706 3.23896 5.13184 2.90674C5.78803 2.58839 6.63133 2.2908 7.66699 1.92529L8.26465 1.71436ZM14.1045 7.38623C14.5768 7.15711 14.9938 7.40894 15.084 7.46338L15.4746 7.74561C15.7878 7.99113 16.2162 8.32998 16.542 8.64697C16.7045 8.80511 16.8726 8.98589 17.0049 9.17822C17.1225 9.34923 17.2919 9.64092 17.292 9.99951C17.292 10.3584 17.1226 10.6507 17.0049 10.8218C16.8726 11.0141 16.7045 11.1949 16.542 11.353C16.2162 11.67 15.7878 12.0089 15.4746 12.2544L15.084 12.5366C14.9938 12.5911 14.5768 12.8428 14.1045 12.6138C13.6332 12.3851 13.5737 11.9047 13.5605 11.7993L13.5596 11.7964C13.5412 11.6495 13.5419 11.47 13.542 11.3237V10.8384H8.125C7.66476 10.8384 7.29199 10.4646 7.29199 10.0044C7.29222 9.54435 7.66491 9.17139 8.125 9.17139H13.542V8.67627C13.5419 8.53006 13.5412 8.35056 13.5596 8.20361L13.5605 8.20068C13.5737 8.09531 13.6332 7.61487 14.1045 7.38623Z" fill="#686E7E"/>
</svg>
