<svg width="20" height="20" viewBox="0 0 20 20" fill="none" xmlns="http://www.w3.org/2000/svg">
<path d="M8.76362 1.70241C8.91318 1.89702 8.935 2.16115 8.8194 2.37766C8.33276 3.28903 8.05664 4.33 8.05664 5.43732C8.05664 9.0305 10.9695 11.9433 14.5627 11.9433C15.67 11.9433 16.711 11.6672 17.6223 11.1806C17.8388 11.065 18.103 11.0868 18.2976 11.2364C18.4922 11.3859 18.5812 11.6356 18.5252 11.8745C17.6297 15.6957 14.2008 18.5416 10.1058 18.5416C5.32995 18.5416 1.45837 14.67 1.45837 9.89421C1.45837 5.79916 4.30425 2.37032 8.12546 1.47477C8.36442 1.41876 8.61405 1.50781 8.76362 1.70241Z" fill="#686E7E"/>
</svg>
