<svg width="24" height="24" viewBox="0 0 24 24" fill="none" xmlns="http://www.w3.org/2000/svg">
<path d="M12 2.25C12.3328 2.25 12.7399 2.32606 13.1582 2.43262C13.59 2.54262 14.0854 2.6989 14.6123 2.88574C15.6667 3.25963 16.8823 3.76947 18.0342 4.32031C19.1827 4.86954 20.2913 5.47023 21.123 6.03027C21.5361 6.30838 21.906 6.5937 22.1816 6.87305C22.3195 7.0128 22.4516 7.16898 22.5527 7.33887C22.651 7.50399 22.75 7.73169 22.75 8C22.75 8.26832 22.651 8.49601 22.5527 8.66113C22.4516 8.83102 22.3195 8.9872 22.1816 9.12695C21.9348 9.37712 21.6114 9.63066 21.25 9.88086V16.3564C21.3341 16.5458 21.4436 16.7511 21.5771 17.001C21.6656 17.1666 21.765 17.3521 21.874 17.5654C22.1619 18.1289 22.4728 18.8094 22.6582 19.5898C22.7816 20.1092 22.8554 20.7965 22.3662 21.2871C22.1371 21.5169 21.8542 21.6245 21.6055 21.6797C21.3576 21.7346 21.0858 21.75 20.8154 21.75H20.1846C19.914 21.75 19.6416 21.7347 19.3936 21.6797C19.1448 21.6245 18.8619 21.5169 18.6328 21.2871C18.1438 20.7965 18.2184 20.1091 18.3418 19.5898C18.5272 18.8094 18.8381 18.1289 19.126 17.5654C19.235 17.3521 19.3344 17.1666 19.4229 17.001C19.5564 16.7511 19.6659 16.5458 19.75 16.3564V10.7988C19.2105 11.0976 18.6278 11.3958 18.0342 11.6797C16.8823 12.2305 15.6667 12.7404 14.6123 13.1143C14.0854 13.3011 13.59 13.4574 13.1582 13.5674C12.7399 13.6739 12.3328 13.75 12 13.75C11.6672 13.75 11.2601 13.6739 10.8418 13.5674C10.41 13.4574 9.9146 13.3011 9.3877 13.1143C8.33334 12.7404 7.11775 12.2305 5.96582 11.6797C4.81731 11.1305 3.70867 10.5298 2.87695 9.96973C2.46395 9.69162 2.09398 9.40631 1.81836 9.12695C1.6805 8.9872 1.54845 8.83102 1.44727 8.66113C1.34896 8.49601 1.25 8.26832 1.25 8C1.25 7.73169 1.34896 7.50399 1.44727 7.33887C1.54845 7.16898 1.6805 7.0128 1.81836 6.87305C2.09398 6.5937 2.46395 6.30838 2.87695 6.03027C3.70867 5.47023 4.81731 4.86954 5.96582 4.32031C7.11775 3.76947 8.33334 3.25963 9.3877 2.88574C9.9146 2.6989 10.41 2.54262 10.8418 2.43262C11.2601 2.32606 11.6672 2.25 12 2.25ZM17.373 13.6289C17.7516 13.4644 18.1642 13.7957 18.0771 14.1992L17.4814 16.9561C17.3677 17.4822 17.0918 18.0391 16.5713 18.4121C15.303 19.321 13.6294 19.748 12.002 19.748C10.3743 19.748 8.69999 19.321 7.43164 18.4121C6.91121 18.0391 6.63517 17.4822 6.52148 16.9561L5.92578 14.1992C5.83874 13.7956 6.25222 13.464 6.63086 13.6289C7.40675 13.9668 8.17838 14.2748 8.8877 14.5264C9.44213 14.723 9.98318 14.8938 10.4727 15.0186C10.923 15.1333 11.4772 15.248 12.002 15.248C12.5265 15.248 13.0801 15.1332 13.5303 15.0186C14.0198 14.8938 14.5608 14.723 15.1152 14.5264C15.8247 14.2748 16.597 13.9669 17.373 13.6289Z" fill="#999FAB" fill-opacity="0.7"/>
</svg>
