<svg width="20" height="20" viewBox="0 0 20 20" fill="none" xmlns="http://www.w3.org/2000/svg">
<path d="M10 1.875C10.2774 1.875 10.6171 1.9385 10.9658 2.02734C11.3255 2.119 11.7378 2.24865 12.1768 2.4043C13.0554 2.71588 14.0683 3.14153 15.0283 3.60059C15.9854 4.05827 16.9094 4.55869 17.6025 5.02539C17.9468 5.25719 18.2557 5.4947 18.4854 5.72754C18.6002 5.84402 18.7096 5.97462 18.7939 6.11621C18.8758 6.2538 18.958 6.44349 18.958 6.66699C18.9579 6.89045 18.8758 7.08024 18.7939 7.21777C18.7097 7.35918 18.6001 7.48912 18.4854 7.60547C18.2797 7.81398 18.0092 8.02485 17.708 8.2334V13.6299C17.7781 13.7878 17.8692 13.9597 17.9805 14.168C18.0542 14.3059 18.1368 14.4601 18.2275 14.6377C18.4675 15.1073 18.7273 15.6747 18.8818 16.3252C18.9846 16.758 19.0463 17.3304 18.6387 17.7393C18.4478 17.9307 18.2122 18.0204 18.0049 18.0664C17.7982 18.1122 17.5712 18.125 17.3457 18.125H16.8203C16.5948 18.125 16.3678 18.1122 16.1611 18.0664C15.9539 18.0204 15.7182 17.9307 15.5273 17.7393C15.1199 17.3305 15.1814 16.7579 15.2842 16.3252C15.4387 15.6747 15.6985 15.1073 15.9385 14.6377C16.0293 14.4601 16.1118 14.3059 16.1855 14.168C16.2969 13.9597 16.3879 13.7877 16.458 13.6299V8.99805C16.0083 9.24706 15.5232 9.49676 15.0283 9.7334C14.0683 10.1925 13.0554 10.6171 12.1768 10.9287C11.7378 11.0844 11.3255 11.214 10.9658 11.3057C10.6171 11.3945 10.2774 11.458 10 11.458C9.7226 11.458 9.3829 11.3945 9.03418 11.3057C8.67447 11.214 8.26218 11.0844 7.82324 10.9287C6.94458 10.6171 5.93167 10.1925 4.97168 9.7334C4.01449 9.27568 3.09062 8.77436 2.39746 8.30762C2.05329 8.07585 1.7443 7.83827 1.51465 7.60547C1.3999 7.48912 1.29029 7.35918 1.20605 7.21777C1.12417 7.08024 1.04207 6.89045 1.04199 6.66699C1.04199 6.44349 1.12416 6.2538 1.20605 6.11621C1.29035 5.97462 1.39976 5.84402 1.51465 5.72754C1.74433 5.4947 2.05323 5.25719 2.39746 5.02539C3.09056 4.55869 4.01459 4.05827 4.97168 3.60059C5.93167 3.14153 6.94458 2.71588 7.82324 2.4043C8.26217 2.24865 8.67448 2.119 9.03418 2.02734C9.3829 1.9385 9.7226 1.875 10 1.875ZM14.9229 11.1582C15.2093 11.0286 15.5351 11.2445 15.5215 11.5586L15.4209 13.8828C15.4158 14 15.4015 14.1528 15.3525 14.3145C15.2382 14.692 15.0158 15.0742 14.6426 15.3418C14.0845 15.7417 13.3436 16.0158 12.5566 16.1914C11.7615 16.3689 10.8772 16.4551 10.001 16.4551C9.12467 16.4551 8.24051 16.3689 7.44531 16.1914C6.65822 16.0158 5.91754 15.7418 5.35938 15.3418C4.98596 15.0742 4.76282 14.6921 4.64844 14.3145C4.59951 14.1529 4.58617 13.9999 4.58105 13.8828L4.47949 11.5586C4.46588 11.2446 4.79179 11.0288 5.07812 11.1582C5.87238 11.5177 6.679 11.8456 7.40625 12.1035C7.86829 12.2674 8.31865 12.4107 8.72656 12.5146C9.10182 12.6103 9.56367 12.7051 10.001 12.7051C10.438 12.705 10.8993 12.6102 11.2744 12.5146C11.6823 12.4107 12.1337 12.2674 12.5957 12.1035C13.3228 11.8457 14.1288 11.5176 14.9229 11.1582Z" fill="#2A2C33"/>
</svg>
