<svg width="24" height="24" viewBox="0 0 24 24" fill="none" xmlns="http://www.w3.org/2000/svg">
<path d="M12.0002 1.25C16.4559 1.2501 20.0725 4.84192 20.0725 9.27734C20.0726 10.3089 20.1418 11.0873 20.6174 11.7871C20.6835 11.883 20.7715 12.0035 20.8674 12.1348C21.0339 12.3626 21.2245 12.6242 21.3693 12.8506C21.6251 13.2503 21.8752 13.7323 21.9611 14.2939C22.2414 16.1267 20.9492 17.314 19.6623 17.8457C18.8257 18.1914 17.9298 18.4714 16.9973 18.6895C17.0036 18.7936 16.9952 18.9005 16.967 19.0068C16.3899 21.1783 14.3696 22.75 12.0002 22.75C9.63081 22.75 7.61047 21.1783 7.03339 19.0068C7.00526 18.9008 6.99594 18.7942 7.00214 18.6904C6.06961 18.4724 5.1737 18.1914 4.3371 17.8457C3.05026 17.3139 1.75798 16.1267 2.03828 14.2939C2.12421 13.7323 2.37433 13.2503 2.63007 12.8506C2.77499 12.6241 2.96648 12.3627 3.133 12.1348C3.22889 12.0035 3.31687 11.883 3.383 11.7871C3.8585 11.0874 3.92782 10.3087 3.92793 9.27734C3.92796 4.84189 7.54438 1.25 12.0002 1.25ZM14.8039 19.0771C12.9587 19.3049 11.0407 19.3059 9.1955 19.0781C9.70247 20.0581 10.7565 20.75 12.0002 20.75C13.2441 20.75 14.297 20.0573 14.8039 19.0771Z" fill="#686E7E"/>
</svg>
