<svg width="20" height="20" viewBox="0 0 20 20" fill="none" xmlns="http://www.w3.org/2000/svg">
<path d="M10 1.04199C13.7129 1.04223 16.7264 4.03456 16.7266 7.73047C16.7266 8.59011 16.7844 9.2391 17.1807 9.82227C17.2358 9.90217 17.3088 10.003 17.3887 10.1123C17.5274 10.3023 17.6869 10.5203 17.8076 10.709C18.0208 11.0421 18.2292 11.444 18.3008 11.9121C18.5342 13.4393 17.4571 14.428 16.3848 14.8711C15.6876 15.1591 14.9411 15.3925 14.1641 15.5742C14.1694 15.6611 14.1622 15.7502 14.1387 15.8389C13.6578 17.6484 11.9744 18.9589 10 18.959C8.0255 18.959 6.34223 17.6484 5.86133 15.8389C5.83778 15.7501 5.82965 15.6611 5.83496 15.5742C5.05788 15.3925 4.31139 15.1591 3.61426 14.8711C2.54191 14.428 1.46485 13.4393 1.69824 11.9121C1.76983 11.4441 1.97828 11.0421 2.19141 10.709C2.31216 10.5203 2.47158 10.3022 2.61035 10.1123C2.69026 10.0029 2.76324 9.90219 2.81836 9.82227C3.21462 9.2391 3.27238 8.5901 3.27246 7.73047C3.27267 4.03441 6.28693 1.04199 10 1.04199ZM12.3369 15.8975C10.7989 16.0874 9.20016 16.0874 7.66211 15.8975C8.0844 16.7146 8.96317 17.292 10 17.292C11.0366 17.2919 11.9146 16.7144 12.3369 15.8975Z" fill="white" fill-opacity="0.9"/>
</svg>
