<svg width="20" height="20" viewBox="0 0 20 20" fill="none" xmlns="http://www.w3.org/2000/svg">
<path d="M10.001 1.04199C13.7138 1.04223 16.7273 4.03456 16.7275 7.73047C16.7276 8.59011 16.7854 9.2391 17.1816 9.82227C17.2368 9.90217 17.3098 10.003 17.3896 10.1123C17.5284 10.3023 17.6878 10.5203 17.8086 10.709C18.0217 11.0421 18.2302 11.444 18.3018 11.9121C18.5352 13.4393 17.4581 14.428 16.3857 14.8711C15.6886 15.1591 14.9421 15.3925 14.165 15.5742C14.1704 15.6611 14.1632 15.7502 14.1396 15.8389C13.6588 17.6484 11.9754 18.9589 10.001 18.959C8.02647 18.959 6.34321 17.6484 5.8623 15.8389C5.83876 15.7501 5.83062 15.6611 5.83594 15.5742C5.05886 15.3925 4.31237 15.1591 3.61523 14.8711C2.54289 14.428 1.46582 13.4393 1.69922 11.9121C1.7708 11.4441 1.97925 11.0421 2.19238 10.709C2.31314 10.5203 2.47256 10.3022 2.61133 10.1123C2.69124 10.0029 2.76422 9.90219 2.81934 9.82227C3.2156 9.2391 3.27336 8.5901 3.27344 7.73047C3.27365 4.03441 6.28791 1.04199 10.001 1.04199ZM12.3379 15.8975C10.7998 16.0874 9.20114 16.0874 7.66309 15.8975C8.08538 16.7146 8.96414 17.292 10.001 17.292C11.0376 17.2919 11.9156 16.7144 12.3379 15.8975Z" fill="#686E7E"/>
</svg>
