<svg width="24" height="24" viewBox="0 0 24 24" fill="none" xmlns="http://www.w3.org/2000/svg">
<path d="M15.75 20.5C15.75 21.7426 14.7426 22.75 13.5 22.75H10.5C9.25736 22.75 8.25 21.7426 8.25 20.5V19.25H15.75V20.5ZM12 1.25C16.5563 1.25 20.25 4.94365 20.25 9.5C20.25 12.0478 19.0944 14.3267 17.2812 15.8389C16.6054 16.4025 16.093 17.0567 15.8711 17.75H8.12891C7.90697 17.0567 7.39456 16.4025 6.71875 15.8389C4.90559 14.3267 3.75 12.0478 3.75 9.5C3.75 4.94365 7.44365 1.25 12 1.25ZM11.9922 13C11.4399 13 10.9922 13.4477 10.9922 14C10.9922 14.5523 11.4399 15 11.9922 15H12.001C12.5533 15 13.001 14.5523 13.001 14C13.001 13.4477 12.5533 13 12.001 13H11.9922ZM12 5.25C10.4593 5.25 9.25 6.59556 9.25 8C9.25 8.41421 9.58579 8.75 10 8.75C10.4142 8.75 10.75 8.41421 10.75 8C10.75 7.37939 11.3316 6.75 12 6.75C12.753 6.75 13.2498 7.2949 13.25 7.83301C13.25 8.03476 13.1866 8.22651 13.0693 8.39355C12.9456 8.56976 12.7896 8.75295 12.6045 8.96387L12.5137 9.06738C12.3585 9.24331 12.187 9.43835 12.0303 9.63574C11.6639 10.0973 11.25 10.7255 11.25 11.5C11.25 11.9142 11.5858 12.25 12 12.25C12.4142 12.25 12.75 11.9142 12.75 11.5C12.75 11.262 12.8794 10.9787 13.2051 10.5684C13.3353 10.4042 13.4762 10.2438 13.6309 10.0684L13.7314 9.9541C13.9177 9.74188 14.1218 9.50426 14.2969 9.25488C14.5807 8.85054 14.75 8.36119 14.75 7.83301C14.7498 6.34634 13.4559 5.25 12 5.25Z" fill="#999FAB" fill-opacity="0.7"/>
</svg>
