<svg width="24" height="24" viewBox="0 0 24 24" fill="none" xmlns="http://www.w3.org/2000/svg">
<path d="M12.0615 12C12.7156 11.9999 13.3036 11.9995 13.7793 12.0635C14.2986 12.1333 14.8312 12.296 15.2676 12.7324C15.704 13.1688 15.8667 13.7014 15.9365 14.2207C16.0005 14.6964 16.0001 15.2844 16 15.9385V16.0225C16.2885 16.0005 16.6132 15.9999 16.9453 16H17.5615C18.2156 15.9999 18.8036 15.9995 19.2793 16.0635C19.7986 16.1333 20.3312 16.296 20.7676 16.7324C21.204 17.1688 21.3667 17.7014 21.4365 18.2207C21.5005 18.6964 21.5001 19.2844 21.5 19.9385V21H22C22.5523 21 23 21.4477 23 22C23 22.5523 22.5523 23 22 23H2C1.44772 23 1 22.5523 1 22C1 21.4477 1.44772 21 2 21H2.5V17.9385C2.49994 17.2844 2.49952 16.6964 2.56348 16.2207C2.63331 15.7014 2.79601 15.1688 3.23242 14.7324C3.66883 14.296 4.20138 14.1333 4.7207 14.0635C5.19641 13.9995 5.78435 13.9999 6.43848 14H7.05469C7.42297 13.9999 7.782 14.0023 8.09277 14.0322C8.17621 13.5742 8.34868 13.1162 8.73242 12.7324C9.16883 12.296 9.70138 12.1333 10.2207 12.0635C10.6964 11.9995 11.2844 11.9999 11.9385 12H12.0615ZM6.5 16C5.76463 16 5.31365 16.002 4.9873 16.0459C4.70085 16.0844 4.65227 16.1389 4.64648 16.1455V16.1465H4.64551C4.63892 16.1522 4.58443 16.2008 4.5459 16.4873C4.50202 16.8137 4.5 17.2646 4.5 18V21H8V17C8 16.5005 7.9982 16.2263 7.97266 16.0361C7.97232 16.0337 7.97201 16.0307 7.97168 16.0283C7.9693 16.028 7.96635 16.0277 7.96387 16.0273C7.77368 16.0018 7.49949 16 7 16H6.5ZM17 18C16.5005 18 16.2263 18.0018 16.0361 18.0273C16.0337 18.0277 16.0307 18.028 16.0283 18.0283C16.028 18.0307 16.0277 18.0337 16.0273 18.0361C16.0018 18.2263 16 18.5005 16 19V21H19.5V20C19.5 19.2646 19.498 18.8137 19.4541 18.4873C19.4155 18.2006 19.361 18.1522 19.3545 18.1465H19.3535V18.1455C19.3477 18.1388 19.299 18.0844 19.0127 18.0459C18.6863 18.002 18.2354 18 17.5 18H17ZM11.998 1.25C12.67 1.25 13.1205 1.75339 13.3633 2.24512L14.0586 3.64844L14.0645 3.6543C14.0692 3.65862 14.0749 3.66338 14.0811 3.66797C14.0872 3.67257 14.0939 3.67629 14.0996 3.67969L14.1074 3.68457L15.3623 3.89453C15.9025 3.98531 16.4907 4.27494 16.6895 4.89844C16.8879 5.52087 16.578 6.09773 16.1904 6.48633L16.1885 6.4873L15.2129 7.4707C15.2095 7.47776 15.2051 7.48905 15.2012 7.50293C15.1969 7.51821 15.1951 7.53134 15.1943 7.54004L15.4736 8.75781C15.5997 9.30923 15.6111 10.0757 15.0166 10.5127C14.4191 10.9515 13.6911 10.7049 13.2061 10.416L12.0293 9.71387L12.0215 9.71289C12.0151 9.71218 12.0078 9.71094 12 9.71094C11.9921 9.71094 11.9843 9.71212 11.9775 9.71289C11.9733 9.71338 11.9696 9.71332 11.9668 9.71387L10.792 10.416C10.3051 10.7073 9.57831 10.9498 8.98145 10.5107C8.38831 10.0744 8.39742 9.31024 8.52441 8.75684L8.80273 7.54004C8.802 7.53133 8.80023 7.51822 8.7959 7.50293C8.79195 7.48902 8.78758 7.47776 8.78418 7.4707L7.80664 6.48535C7.42139 6.09692 7.11282 5.52065 7.30957 4.89941C7.50735 4.27579 8.09403 3.98547 8.63477 3.89453L9.88574 3.68555L9.89258 3.68066C9.89823 3.67725 9.90489 3.6736 9.91113 3.66895C9.91743 3.66424 9.92285 3.65875 9.92773 3.6543L9.93457 3.64844L10.6309 2.24414L10.6318 2.24316C10.8765 1.75238 11.3273 1.25005 11.998 1.25Z" fill="#2A2C33"/>
</svg>
