<svg width="19" height="19" viewBox="0 0 19 19" fill="none" xmlns="http://www.w3.org/2000/svg">
<path d="M8.33398 0C3.73161 0 0 3.73161 0 8.33398C0.000175476 12.9362 3.73172 16.667 8.33398 16.667C10.3351 16.667 12.1709 15.9608 13.6074 14.7852L16.9111 18.0898C17.2366 18.4152 17.7644 18.4152 18.0898 18.0898C18.4153 17.7644 18.4152 17.2366 18.0898 16.9111L14.7861 13.6064C15.9613 12.1701 16.6669 10.3346 16.667 8.33398C16.667 3.73167 12.9363 9.73443e-05 8.33398 0ZM8.33398 1.66699C12.0158 1.66709 15 4.65215 15 8.33398C14.9998 12.0157 12.0157 14.9999 8.33398 15C4.65219 15 1.66717 12.0157 1.66699 8.33398C1.66699 4.65209 4.65209 1.66699 8.33398 1.66699Z" fill="#999FAB" fill-opacity="0.7"/>
</svg>
