<svg width="20" height="20" viewBox="0 0 20 20" fill="none" xmlns="http://www.w3.org/2000/svg">
<path d="M7.25195 1.67432C7.5095 1.70886 7.70076 1.85597 7.81055 1.94775C7.92673 2.04494 8.21703 2.33375 8.21973 2.33643C8.7056 2.81822 9.35293 3.0589 10 3.05908C10.6471 3.0589 11.2944 2.81822 11.7803 2.33643C11.7822 2.3345 12.0731 2.04507 12.1895 1.94775C12.2992 1.85597 12.4905 1.70887 12.748 1.67432C12.985 1.64258 13.1853 1.71164 13.3213 1.771C13.4461 1.8255 13.587 1.90479 13.7236 1.98193L15.5986 3.05615C15.7201 3.14212 15.8844 3.27923 15.9785 3.50049C16.0812 3.7421 16.0479 3.98561 16.0234 4.12646C15.997 4.27896 15.9421 4.48904 15.8896 4.68994C15.5595 5.95392 16.3662 7.31365 17.6719 7.66357L17.6953 7.66943C17.8927 7.72232 18.078 7.77254 18.2227 7.82471C18.358 7.87354 18.5838 7.96499 18.7432 8.17139C18.8897 8.36157 18.929 8.57075 18.9443 8.71826C18.9584 8.85427 18.958 9.01705 18.958 9.17529V10.8247C18.958 10.983 18.9584 11.1457 18.9443 11.2817C18.929 11.4292 18.8897 11.6375 18.7432 11.8276C18.5838 12.0343 18.3581 12.1264 18.2227 12.1753C18.0779 12.2275 17.6719 12.3364 17.6719 12.3364C16.3667 12.6863 15.5602 14.0459 15.8906 15.3101C15.8939 15.3224 15.9982 15.722 16.0244 15.8726C16.0489 16.0135 16.0824 16.2578 15.9795 16.4995C15.8852 16.7208 15.7211 16.8579 15.5996 16.9438L13.7256 18.0171C13.5888 18.0943 13.4473 18.1744 13.3223 18.229C13.1863 18.2883 12.9867 18.3563 12.75 18.3247C12.4924 18.2902 12.3012 18.1431 12.1914 18.0513C12.0762 17.955 11.7883 17.6705 11.7812 17.6636C11.2951 17.1813 10.6476 16.9401 10 16.9399C9.35244 16.9401 8.70495 17.1813 8.21875 17.6636C8.2115 17.6708 7.92372 17.955 7.80859 18.0513C7.69884 18.143 7.50835 18.2901 7.25098 18.3247C7.01404 18.3564 6.81377 18.2884 6.67773 18.229C6.55272 18.1744 6.41124 18.0943 6.27441 18.0171L4.40039 16.9438C4.27891 16.8579 4.11476 16.7208 4.02051 16.4995C3.91764 16.2578 3.95113 16.0135 3.97559 15.8726C4.00178 15.7221 4.10612 15.3225 4.10938 15.3101C4.43977 14.0459 3.63332 12.6863 2.32812 12.3364C2.32812 12.3364 1.92211 12.2275 1.77734 12.1753C1.64191 12.1264 1.41622 12.0343 1.25684 11.8276C1.1103 11.6375 1.07096 11.4292 1.05566 11.2817C1.04157 11.1457 1.04196 10.983 1.04199 10.8247V9.17529C1.04196 9.01705 1.04159 8.85427 1.05566 8.71826C1.07096 8.57075 1.11025 8.36157 1.25684 8.17139C1.41614 7.965 1.64196 7.87354 1.77734 7.82471C1.92202 7.77255 2.10728 7.72232 2.30469 7.66943L2.32812 7.66357C3.63381 7.31365 4.44046 5.95392 4.11035 4.68994C4.05785 4.48904 4.00301 4.27896 3.97656 4.12646C3.95214 3.98561 3.9188 3.7421 4.02148 3.50049C4.11564 3.27924 4.27989 3.14212 4.40137 3.05615L6.27637 1.98193C6.41298 1.90479 6.55386 1.82551 6.67871 1.771C6.81473 1.71164 7.01496 1.64258 7.25195 1.67432ZM10 7.0835C8.38926 7.0835 7.08315 8.3888 7.08301 9.99951C7.08301 11.6103 8.38917 12.9165 10 12.9165C11.6108 12.9165 12.917 11.6103 12.917 9.99951C12.9169 8.3888 11.6107 7.0835 10 7.0835Z" fill="white" fill-opacity="0.9"/>
</svg>
