<svg width="20" height="20" viewBox="0 0 20 20" fill="none" xmlns="http://www.w3.org/2000/svg">
<path d="M7.25195 1.67456C7.5095 1.70911 7.70076 1.85621 7.81055 1.948C7.92673 2.04518 8.21703 2.334 8.21973 2.33667C8.7056 2.81846 9.35293 3.05914 10 3.05933C10.6471 3.05915 11.2944 2.81846 11.7803 2.33667C11.7822 2.33474 12.0731 2.04532 12.1895 1.948C12.2992 1.85622 12.4905 1.70911 12.748 1.67456C12.985 1.64283 13.1853 1.71188 13.3213 1.77124C13.4461 1.82575 13.587 1.90504 13.7236 1.98218L15.5986 3.0564C15.7201 3.14237 15.8844 3.27948 15.9785 3.50073C16.0812 3.74235 16.0479 3.98585 16.0234 4.12671C15.997 4.2792 15.9421 4.48929 15.8896 4.69019C15.5595 5.95416 16.3662 7.3139 17.6719 7.66382L17.6953 7.66968C17.8927 7.72256 18.078 7.77279 18.2227 7.82495C18.358 7.87378 18.5838 7.96524 18.7432 8.17163C18.8897 8.36182 18.929 8.57099 18.9443 8.71851C18.9584 8.85452 18.958 9.0173 18.958 9.17554V10.825C18.958 10.9832 18.9584 11.146 18.9443 11.282C18.929 11.4295 18.8897 11.6377 18.7432 11.8279C18.5838 12.0346 18.3581 12.1267 18.2227 12.1755C18.0779 12.2277 17.6719 12.3367 17.6719 12.3367C16.3667 12.6866 15.5602 14.0462 15.8906 15.3103C15.8939 15.3227 15.9982 15.7223 16.0244 15.8728C16.0489 16.0137 16.0824 16.258 15.9795 16.4998C15.8852 16.7211 15.7211 16.8582 15.5996 16.9441L13.7256 18.0173C13.5888 18.0946 13.4473 18.1747 13.3223 18.2292C13.1863 18.2886 12.9867 18.3566 12.75 18.325C12.4924 18.2904 12.3012 18.1433 12.1914 18.0515C12.0762 17.9552 11.7883 17.6708 11.7812 17.6638C11.2951 17.1816 10.6476 16.9404 10 16.9402C9.35244 16.9404 8.70495 17.1816 8.21875 17.6638C8.2115 17.671 7.92372 17.9552 7.80859 18.0515C7.69884 18.1433 7.50835 18.2903 7.25098 18.325C7.01404 18.3567 6.81377 18.2886 6.67773 18.2292C6.55272 18.1747 6.41124 18.0946 6.27441 18.0173L4.40039 16.9441C4.27891 16.8581 4.11476 16.7211 4.02051 16.4998C3.91764 16.258 3.95113 16.0137 3.97559 15.8728C4.00178 15.7223 4.10612 15.3228 4.10938 15.3103C4.43977 14.0462 3.63332 12.6866 2.32812 12.3367C2.32812 12.3367 1.92211 12.2277 1.77734 12.1755C1.64191 12.1267 1.41622 12.0346 1.25684 11.8279C1.1103 11.6377 1.07096 11.4295 1.05566 11.282C1.04157 11.146 1.04196 10.9832 1.04199 10.825V9.17554C1.04196 9.0173 1.04159 8.85452 1.05566 8.71851C1.07096 8.57099 1.11025 8.36182 1.25684 8.17163C1.41614 7.96524 1.64196 7.87378 1.77734 7.82495C1.92202 7.77279 2.10728 7.72256 2.30469 7.66968L2.32812 7.66382C3.63381 7.3139 4.44046 5.95416 4.11035 4.69019C4.05785 4.48928 4.00301 4.2792 3.97656 4.12671C3.95214 3.98586 3.9188 3.74235 4.02148 3.50073C4.11564 3.27949 4.27989 3.14237 4.40137 3.0564L6.27637 1.98218C6.41298 1.90504 6.55386 1.82575 6.67871 1.77124C6.81473 1.71188 7.01496 1.64283 7.25195 1.67456ZM10 7.08374C8.38926 7.08375 7.08315 8.38905 7.08301 9.99976C7.08301 11.6106 8.38917 12.9167 10 12.9167C11.6108 12.9167 12.917 11.6106 12.917 9.99976C12.9169 8.38904 11.6107 7.08374 10 7.08374Z" fill="#686E7E"/>
</svg>
