<svg width="20" height="20" viewBox="0 0 20 20" fill="none" xmlns="http://www.w3.org/2000/svg">
<path d="M14.1836 5.66455C14.277 5.21395 14.7183 4.92472 15.1689 5.01807C15.9183 5.17343 16.5635 5.4507 17.0986 5.96045C17.7742 6.6041 18.067 7.41879 18.2031 8.3833C18.3334 9.3062 18.333 10.4774 18.333 11.9204V12.0464C18.333 13.4891 18.3333 14.6607 18.2031 15.5835C18.067 16.5481 17.7744 17.3636 17.0986 18.0073C16.4286 18.6456 15.5896 18.9173 14.5967 19.0444C13.636 19.1674 12.4132 19.1665 10.8916 19.1665H9.1084C7.58678 19.1665 6.36401 19.1674 5.40332 19.0444C4.41036 18.9173 3.57145 18.6456 2.90137 18.0073C2.22557 17.3636 1.93303 16.5481 1.79688 15.5835C1.66666 14.6607 1.66696 13.4891 1.66699 12.0464V11.9204C1.66696 10.4774 1.66661 9.3062 1.79688 8.3833C1.93302 7.41879 2.22577 6.6041 2.90137 5.96045C3.43654 5.4507 4.08172 5.17343 4.83105 5.01807C5.28166 4.92472 5.72298 5.21394 5.81641 5.66455C5.90972 6.11513 5.61953 6.55648 5.16895 6.6499C4.62767 6.76217 4.29823 6.93083 4.05078 7.1665C3.75026 7.45275 3.55518 7.85214 3.44727 8.6167C3.33542 9.4095 3.33301 10.4628 3.33301 11.9839C3.33301 13.5051 3.33536 14.5583 3.44727 15.3511C3.55517 16.1154 3.75035 16.5141 4.05078 16.8003C4.35701 17.092 4.79277 17.2858 5.61523 17.3911C6.45764 17.499 7.57338 17.5005 9.16699 17.5005H10.833C12.4266 17.5005 13.5424 17.499 14.3848 17.3911C15.2072 17.2858 15.643 17.092 15.9492 16.8003C16.2496 16.5141 16.4448 16.1155 16.5527 15.3511C16.6646 14.5583 16.667 13.5051 16.667 11.9839C16.667 10.4628 16.6646 9.4095 16.5527 8.6167C16.4448 7.85214 16.2497 7.45275 15.9492 7.1665C15.7018 6.93084 15.3723 6.76216 14.8311 6.6499C14.3805 6.55648 14.0903 6.11513 14.1836 5.66455ZM10.0566 0.834473C10.3916 0.848035 10.6921 0.979368 10.9307 1.17627C11.4142 1.57545 12.0676 2.29667 12.5283 2.82568C12.6569 2.97334 12.8201 3.15812 12.9277 3.32764C13.0337 3.4946 13.2501 3.9024 13.0283 4.37158C12.8053 4.84292 12.3436 4.94445 12.1475 4.97314C11.9586 5.00073 11.7276 5.00063 11.5342 5.00049C11.3071 5.00032 11.0796 5.00049 10.8525 5.00049V11.6665C10.8525 12.1267 10.4708 12.5005 10 12.5005C9.52922 12.5004 9.14746 12.1267 9.14746 11.6665V5.00049C8.92029 5.00049 8.69299 5.00032 8.46582 5.00049C8.27244 5.00063 8.04143 5.00073 7.85254 4.97314C7.65635 4.94444 7.19473 4.84289 6.97168 4.37158C6.74993 3.90251 6.96535 3.49464 7.07129 3.32764C7.17885 3.15808 7.34311 2.97435 7.47168 2.82666C7.93229 2.29753 8.58542 1.57459 9.06934 1.17529C9.33661 0.954866 9.68015 0.819248 10.0566 0.834473Z" fill="#686E7E"/>
</svg>
