<svg width="20" height="20" viewBox="0 0 20 20" fill="none" xmlns="http://www.w3.org/2000/svg">
<path d="M9.99675 1.04175C10.8711 1.04175 11.5599 1.70219 11.9996 2.59334L13.468 5.55438C13.5125 5.64602 13.618 5.77507 13.7767 5.89311C13.9352 6.01104 14.0905 6.07609 14.1926 6.09325L16.8506 6.53852C17.8107 6.69986 18.6155 7.17049 18.8767 7.99C19.1378 8.80883 18.7553 9.65975 18.0649 10.3515L18.0642 10.3521L15.9993 12.4341C15.9174 12.5166 15.8257 12.6721 15.7682 12.8746C15.7111 13.0758 15.7061 13.259 15.732 13.3774L15.7323 13.379L16.3231 15.9546C16.5681 17.0265 16.4869 18.0895 15.7309 18.6452C14.9723 19.2029 13.9356 18.9557 12.9938 18.3948L10.5021 16.9076C10.3975 16.8451 10.2178 16.7944 10.0009 16.7944C9.78561 16.7944 9.60214 16.8444 9.4907 16.9092L9.48912 16.9102L7.0024 18.3944C6.06171 18.9573 5.02628 19.2001 4.26759 18.6419C3.51208 18.0861 3.42678 17.0251 3.67259 15.954L4.26325 13.379L4.26361 13.3774C4.28951 13.259 4.28444 13.0758 4.22733 12.8746C4.16983 12.6721 4.07815 12.5166 3.99631 12.4341L1.92988 10.3506C1.24387 9.65894 0.862672 8.80875 1.12162 7.99113C1.38133 7.17112 2.18452 6.69992 3.14528 6.53847L5.8011 6.09358L5.80194 6.09343C5.89931 6.07654 6.05225 6.01221 6.2104 5.89399C6.36884 5.77553 6.47466 5.64621 6.51927 5.55438L6.52151 5.54981L7.98802 2.59256L7.9886 2.59139C8.43247 1.70098 9.12336 1.04175 9.99675 1.04175Z" fill="#FFC107"/>
</svg>
