<svg width="20" height="20" viewBox="0 0 20 20" fill="none" xmlns="http://www.w3.org/2000/svg">
<path d="M13.4767 17.6508C13.1255 17.3536 12.725 16.8982 12.2535 16.362L10.0369 13.8419C8.93956 12.5943 8.80961 12.046 8.88181 11.9278L9.71374 11.2578L13.0857 8.62035C13.3575 8.40769 13.4056 8.01488 13.1929 7.743C12.9802 7.47111 12.5874 7.4231 12.3155 7.63577L8.94007 10.2759L7.92499 11.1044C7.68803 11.3588 7.5369 11.7937 7.70172 12.4121C7.85554 12.9893 8.28697 13.7522 9.20562 14.7995L8.86632 15.4685C8.6472 15.7731 8.44375 16.0559 8.2565 16.2498C8.07046 16.4424 7.73239 16.7254 7.26153 16.6318C6.79686 16.5393 6.58835 16.1552 6.48511 15.9086C6.38026 15.6583 6.29145 15.3187 6.1951 14.9503L5.77718 13.3532C5.54505 12.4662 5.46489 12.2112 5.31384 12.0235C5.29477 11.9998 5.27492 11.9769 5.25432 11.9549C5.09485 11.7841 4.86963 11.6791 4.04466 11.3484L3.99948 11.3303C3.18648 11.0044 2.5168 10.736 2.0484 10.4723C1.59461 10.2168 1.10458 9.84531 1.04821 9.21859C1.03945 9.12119 1.0396 9.02316 1.04866 8.92578C1.10696 8.29918 1.59821 7.9293 2.05279 7.67531C2.52202 7.41313 3.19253 7.14694 4.00652 6.82379L13.9933 2.85877L13.9933 2.85876C15.0148 2.45316 15.8501 2.12149 16.5064 1.97029C17.1756 1.81612 17.8669 1.7998 18.4085 2.30084C18.9395 2.79199 19.003 3.4839 18.9369 4.18123C18.8713 4.87309 18.6554 5.77285 18.3891 6.88275L16.3728 15.2886L16.3728 15.2887C16.2031 15.9962 16.0598 16.5934 15.888 17.0268C15.7145 17.4646 15.4361 17.9347 14.8738 18.0834C14.3045 18.2339 13.8342 17.9533 13.4767 17.6508Z" fill="#686E7E"/>
</svg>
