<svg width="42" height="42" viewBox="0 0 42 42" fill="none" xmlns="http://www.w3.org/2000/svg">
<path d="M21 2.1875C31.3899 2.1875 39.8125 10.6101 39.8125 21C39.8125 31.3899 31.3899 39.8125 21 39.8125C10.6101 39.8125 2.1875 31.3899 2.1875 21C2.1875 10.6101 10.6101 2.1875 21 2.1875ZM29.2373 12.7627C28.5539 12.0793 27.4461 12.0793 26.7627 12.7627L21 18.5254L17.8623 15.3877C17.1789 14.7043 16.0711 14.7043 15.3877 15.3877C14.7043 16.0711 14.7043 17.1789 15.3877 17.8623L18.5254 21L18.0127 21.5127C17.3293 22.1961 17.3293 23.3039 18.0127 23.9873C18.6961 24.6707 19.8039 24.6707 20.4873 23.9873L21 23.4746L21.5127 23.9873C22.1962 24.6703 23.304 24.6696 23.9873 23.9863C24.6705 23.3029 24.6707 22.195 23.9873 21.5117L23.4746 21L29.2373 15.2373C29.9207 14.5539 29.9207 13.4461 29.2373 12.7627Z" fill="#686E7E"/>
</svg>
