<svg width="24" height="24" viewBox="0 0 24 24" fill="none" xmlns="http://www.w3.org/2000/svg">
<path fill-rule="evenodd" clip-rule="evenodd" d="M11.615 1.58308C12.015 1.18008 12.572 1.23507 12.849 1.28407C13.189 1.34307 13.555 1.47808 13.886 1.62208C14.556 1.91508 15.245 2.32107 15.614 2.54807C16.571 3.13707 16.75 4.24506 16.75 4.98206C16.75 5.39606 16.414 5.73206 16 5.73206L12.75 5.73206V7.25007L17.5 7.25007C17.914 7.25007 18.25 7.58607 18.25 8.00007C18.25 8.41407 17.914 8.75007 17.5 8.75007H17.25V12.0001L22 12.0001C22.552 12.0001 23 12.4481 23 13.0001C23 13.5521 22.552 14.0001 22 14.0001H21.75V21.0001H22C22.552 21.0001 23 21.4481 23 22.0001C23 22.5521 22.552 23.0001 22 23.0001L2 23.0001C1.448 23.0001 1 22.5521 1 22.0001C1 21.4481 1.448 21.0001 2 21.0001H2.25L2.25 14.0001H2C1.448 14.0001 1 13.5521 1 13.0001C1 12.4481 1.448 12.0001 2 12.0001L6.75 12.0001L6.75 8.75007H6.5C6.086 8.75007 5.75 8.41407 5.75 8.00007C5.75 7.58607 6.086 7.25007 6.5 7.25007L11.25 7.25007L11.2509 2.72587C11.2528 2.58483 11.2583 2.4444 11.275 2.31907C11.304 2.10007 11.38 1.81908 11.615 1.58308ZM6.75 14.0001L4.25 14.0001L4.25 21.0001H6.75L6.75 14.0001ZM12 19.2501C11.586 19.2501 11.25 19.5861 11.25 20.0001V21.0001H12.75V20.0001C12.75 19.5861 12.414 19.2501 12 19.2501ZM19.75 14.0001L17.25 14.0001V21.0001H19.75V14.0001ZM10.5 15.2501C10.086 15.2501 9.75 15.5861 9.75 16.0001V16.5001C9.75 16.9141 10.086 17.2501 10.5 17.2501C10.914 17.2501 11.25 16.9141 11.25 16.5001V16.0001C11.25 15.5861 10.914 15.2501 10.5 15.2501ZM13.5 15.2501C13.086 15.2501 12.75 15.5861 12.75 16.0001V16.5001C12.75 16.9141 13.086 17.2501 13.5 17.2501C13.914 17.2501 14.25 16.9141 14.25 16.5001V16.0001C14.25 15.5861 13.914 15.2501 13.5 15.2501ZM10.5 11.2501C10.086 11.2501 9.75 11.5861 9.75 12.0001L9.75 12.5001C9.75 12.9141 10.086 13.2501 10.5 13.2501C10.914 13.2501 11.25 12.9141 11.25 12.5001L11.25 12.0001C11.25 11.5861 10.914 11.2501 10.5 11.2501ZM13.5 11.2501C13.086 11.2501 12.75 11.5861 12.75 12.0001L12.75 12.5001C12.75 12.9141 13.086 13.2501 13.5 13.2501C13.914 13.2501 14.25 12.9141 14.25 12.5001L14.25 12.0001C14.25 11.5861 13.914 11.2501 13.5 11.2501Z" fill="#999FAB" fill-opacity="0.7"/>
</svg>
