<svg width="20" height="20" viewBox="0 0 20 20" fill="none" xmlns="http://www.w3.org/2000/svg">
<path d="M4.95312 12.3643C7.91473 10.6007 11.6682 10.6009 14.6299 12.3643C14.7268 12.4219 14.8469 12.4899 14.9824 12.5664C15.5764 12.9015 16.4747 13.4077 17.0898 14.0098C17.4745 14.3862 17.8396 14.8825 17.9062 15.4902C17.9769 16.1367 17.6947 16.7441 17.1289 17.2832C16.1528 18.2131 14.981 18.958 13.4658 18.958H6.11719C4.60208 18.9579 3.43024 18.2131 2.4541 17.2832C1.88835 16.7442 1.60707 16.1367 1.67773 15.4902C1.74434 14.8825 2.10952 14.3862 2.49414 14.0098C3.10928 13.4077 4.00758 12.9015 4.60156 12.5664C4.73697 12.49 4.85627 12.4219 4.95312 12.3643ZM9.79199 1.04199C12.2081 1.04214 14.167 3.00084 14.167 5.41699C14.1668 7.83299 12.208 9.79184 9.79199 9.79199C7.37588 9.79199 5.41717 7.83308 5.41699 5.41699C5.41699 3.00074 7.37578 1.04199 9.79199 1.04199Z" fill="#7B94A8"/>
</svg>
