<svg width="20" height="20" viewBox="0 0 20 20" fill="none" xmlns="http://www.w3.org/2000/svg">
<path fill-rule="evenodd" clip-rule="evenodd" d="M8.00032 3.0081C6.70865 3.71643 5.83366 5.09134 5.83366 6.66634C5.83366 7.50801 6.08365 8.29967 6.51699 8.95801C4.85865 8.87467 3.54199 7.50801 3.54199 5.83301C3.54199 4.15801 4.94199 2.70801 6.66699 2.70801C7.14199 2.70801 7.60032 2.81643 8.00032 3.0081ZM7.10033 10.208C4.92533 10.8413 3.33366 12.858 3.33366 15.2414C3.33366 15.6747 3.42533 16.083 3.58366 16.458H3.09199C1.95865 16.458 1.04199 15.5414 1.04199 14.408C1.04199 12.083 2.92532 10.208 5.24199 10.208H7.10866H7.10033ZM10.0003 3.54134C8.27533 3.54134 6.87533 4.94134 6.87533 6.66634C6.87533 8.39134 8.27533 9.79134 10.0003 9.79134C11.7253 9.79134 13.1253 8.39134 13.1253 6.66634C13.1253 4.94134 11.7253 3.54134 10.0003 3.54134ZM8.56699 11.0413C6.25032 11.0413 4.36698 12.9164 4.36698 15.2414C4.36698 16.3747 5.28366 17.2913 6.41699 17.2913H13.5587C14.692 17.2913 15.6087 16.3747 15.6087 15.2414C15.6087 12.9164 13.7253 11.0413 11.4087 11.0413H8.55032H8.56699ZM14.167 6.66634C14.167 7.50801 13.917 8.29967 13.4837 8.95801C15.142 8.87467 16.4587 7.50801 16.4587 5.83301C16.4587 4.15801 15.0587 2.70801 13.3337 2.70801C12.8587 2.70801 12.4003 2.81643 12.0003 3.0081C13.292 3.71643 14.167 5.09134 14.167 6.66634ZM16.667 15.2414C16.667 15.6747 16.5753 16.083 16.417 16.458H16.9087C18.042 16.458 18.9587 15.5414 18.9587 14.408C18.9587 12.083 17.0753 10.208 14.7587 10.208H12.892C15.067 10.8413 16.6587 12.858 16.6587 15.2414H16.667Z" fill="#686E7E"/>
</svg>
