<svg width="20" height="20" viewBox="0 0 20 20" fill="none" xmlns="http://www.w3.org/2000/svg">
<path d="M15.6094 10.4609C16.1586 10.1344 16.8368 10.1235 17.3955 10.4336C17.6286 10.563 17.8346 10.7743 18.0684 11.0137L18.1748 11.1221C18.41 11.3618 18.6156 11.5715 18.7412 11.8076C19.0397 12.3688 19.0296 13.0473 18.7148 13.5996C18.5824 13.8319 18.3708 14.0351 18.1289 14.2676L14.4707 17.791C13.9857 18.2589 13.6181 18.6134 13.1484 18.7969C12.6777 18.9807 12.1704 18.9672 11.5039 18.9492L11.2695 18.9434C11.1725 18.9409 11.0435 18.9376 10.9316 18.9189C10.7918 18.8956 10.5848 18.8348 10.418 18.6455C10.2529 18.4581 10.2176 18.2473 10.21 18.1094C10.2037 17.9966 10.2138 17.868 10.2217 17.7686L10.2412 17.5264C10.2865 16.941 10.3201 16.5041 10.4941 16.1035C10.6687 15.7019 10.9647 15.3821 11.3594 14.9551L14.9531 11.0605C15.18 10.8141 15.3802 10.5973 15.6094 10.4609ZM7.8291 11.1357C8.71561 11.0107 9.61739 11.0107 10.5039 11.1357C10.9988 11.2055 11.4899 11.314 11.9707 11.4619C12.2786 11.5566 12.4328 11.6041 12.4688 11.7373C12.5047 11.8705 12.3909 11.9935 12.1641 12.2393L10.3838 14.167C10.035 14.5434 9.60857 15.0051 9.34766 15.6055C9.08806 16.203 9.04018 16.8308 9.00098 17.3467L8.96191 18.1787L8.96387 18.2109C8.99091 18.6031 9.00472 18.7995 8.93066 18.8789C8.85656 18.9583 8.69595 18.958 8.375 18.958H5.49219C3.97709 18.9579 2.80524 18.2132 1.8291 17.2832C1.26334 16.7441 0.982068 16.1367 1.05273 15.4902C1.11932 14.8825 1.48451 14.3863 1.86914 14.0098C2.48428 13.4077 3.38258 12.9015 3.97656 12.5664C4.11196 12.49 4.23127 12.4219 4.32812 12.3643C5.41537 11.7169 6.60885 11.3079 7.8291 11.1357ZM10 1.04199C12.4162 1.04199 14.375 3.00075 14.375 5.41699C14.3748 7.83309 12.4161 9.79199 10 9.79199C7.58398 9.79185 5.62518 7.833 5.625 5.41699C5.625 3.00083 7.58387 1.04213 10 1.04199Z" fill="white"/>
</svg>
