<svg width="16" height="16" viewBox="0 0 16 16" fill="none" xmlns="http://www.w3.org/2000/svg">
<path fill-rule="evenodd" clip-rule="evenodd" d="M3.68018 4.47524C4.81728 3.58752 6.28627 2.83325 7.99998 2.83325C9.71369 2.83325 11.1827 3.58752 12.3198 4.47524C13.4579 5.36376 14.2991 6.41308 14.7697 7.07293L14.8052 7.12241C14.974 7.35713 15.1666 7.62511 15.1666 7.99992C15.1666 8.37472 14.974 8.64271 14.8052 8.87743L14.7697 8.92691C14.2991 9.58676 13.4579 10.6361 12.3198 11.5246C11.1827 12.4123 9.71369 13.1666 7.99998 13.1666C6.28627 13.1666 4.81728 12.4123 3.68018 11.5246C2.54207 10.6361 1.70082 9.58676 1.23025 8.92691L1.19477 8.87743C1.026 8.64271 0.833313 8.37472 0.833313 7.99992C0.833313 7.62511 1.026 7.35713 1.19477 7.12241L1.23025 7.07293C1.70082 6.41308 2.54207 5.36376 3.68018 4.47524ZM5.66665 7.99992C5.66665 9.28858 6.71132 10.3333 7.99998 10.3333C9.28864 10.3333 10.3333 9.28858 10.3333 7.99992C10.3333 6.71125 9.28864 5.66659 7.99998 5.66659C6.71132 5.66659 5.66665 6.71125 5.66665 7.99992Z" fill="#686E7E"/>
</svg>
